%TF.GenerationSoftware,KiCad,Pcbnew,7.0.6*%
%TF.CreationDate,2023-08-06T21:34:41+02:00*%
%TF.ProjectId,Macropad,4d616372-6f70-4616-942e-6b696361645f,rev?*%
%TF.SameCoordinates,Original*%
%TF.FileFunction,Soldermask,Top*%
%TF.FilePolarity,Negative*%
%FSLAX46Y46*%
G04 Gerber Fmt 4.6, Leading zero omitted, Abs format (unit mm)*
G04 Created by KiCad (PCBNEW 7.0.6) date 2023-08-06 21:34:41*
%MOMM*%
%LPD*%
G01*
G04 APERTURE LIST*
%ADD10C,1.930400*%
%ADD11R,1.930400X1.930400*%
%ADD12R,1.600000X1.600000*%
%ADD13O,1.600000X1.600000*%
%ADD14C,1.750000*%
%ADD15C,4.000000*%
%ADD16C,2.500000*%
%ADD17O,1.800000X1.800000*%
%ADD18O,1.500000X1.500000*%
%ADD19O,1.700000X1.700000*%
%ADD20R,1.700000X3.500000*%
%ADD21R,1.700000X1.700000*%
%ADD22R,3.500000X1.700000*%
G04 APERTURE END LIST*
D10*
%TO.C,U5*%
X114300000Y-55880000D03*
X116840000Y-55880000D03*
D11*
X124460000Y-55880000D03*
D10*
X119380000Y-55880000D03*
X121920000Y-55880000D03*
%TD*%
%TO.C,U4*%
X86360000Y-55880000D03*
X88900000Y-55880000D03*
D11*
X96520000Y-55880000D03*
D10*
X91440000Y-55880000D03*
X93980000Y-55880000D03*
%TD*%
%TO.C,U3*%
X60960000Y-55880000D03*
X63500000Y-55880000D03*
D11*
X71120000Y-55880000D03*
D10*
X66040000Y-55880000D03*
X68580000Y-55880000D03*
%TD*%
%TO.C,U2*%
X33020000Y-55880000D03*
X35560000Y-55880000D03*
D11*
X43180000Y-55880000D03*
D10*
X38100000Y-55880000D03*
X40640000Y-55880000D03*
%TD*%
D12*
%TO.C,D7*%
X49954344Y-133350000D03*
D13*
X49954344Y-125730000D03*
%TD*%
D14*
%TO.C,SW9*%
X92747598Y-129039436D03*
D15*
X97827598Y-129039436D03*
D14*
X102907598Y-129039436D03*
D16*
X94017598Y-126499436D03*
X100367598Y-123959436D03*
%TD*%
D14*
%TO.C,SW8*%
X73806367Y-128919047D03*
D15*
X78886367Y-128919047D03*
D14*
X83966367Y-128919047D03*
D16*
X75076367Y-126379047D03*
X81426367Y-123839047D03*
%TD*%
D12*
%TO.C,D18*%
X69274854Y-171569707D03*
D13*
X69274854Y-163949707D03*
%TD*%
D14*
%TO.C,SW10*%
X111889477Y-128878917D03*
D15*
X116969477Y-128878917D03*
D14*
X122049477Y-128878917D03*
D16*
X113159477Y-126338917D03*
X119509477Y-123798917D03*
%TD*%
D14*
%TO.C,SW2*%
X54664488Y-109817298D03*
D15*
X59744488Y-109817298D03*
D14*
X64824488Y-109817298D03*
D16*
X55934488Y-107277298D03*
X62284488Y-104737298D03*
%TD*%
D12*
%TO.C,D13*%
X69274854Y-153202514D03*
D13*
X69274854Y-145582514D03*
%TD*%
D12*
%TO.C,D6*%
X30480000Y-133350000D03*
D13*
X30480000Y-125730000D03*
%TD*%
D12*
%TO.C,D5*%
X107709610Y-113950934D03*
D13*
X107709610Y-106330934D03*
%TD*%
D14*
%TO.C,SW1*%
X35562739Y-109857427D03*
D15*
X40642739Y-109857427D03*
D14*
X45722739Y-109857427D03*
D16*
X36832739Y-107317427D03*
X43182739Y-104777427D03*
%TD*%
D14*
%TO.C,SW12*%
X54659848Y-147946023D03*
D15*
X59739848Y-147946023D03*
D14*
X64819848Y-147946023D03*
D16*
X55929848Y-145406023D03*
X62279848Y-142866023D03*
%TD*%
D14*
%TO.C,SW15*%
X111809708Y-148020720D03*
D15*
X116889708Y-148020720D03*
D14*
X121969708Y-148020720D03*
D16*
X113079708Y-145480720D03*
X119429708Y-142940720D03*
%TD*%
D12*
%TO.C,D14*%
X88314966Y-153202514D03*
D13*
X88314966Y-145582514D03*
%TD*%
D12*
%TO.C,D16*%
X30840100Y-171569707D03*
D13*
X30840100Y-163949707D03*
%TD*%
D17*
%TO.C,U1*%
X101470000Y-79825000D03*
D18*
X98440000Y-80125000D03*
X98440000Y-84975000D03*
D17*
X101470000Y-85275000D03*
D19*
X101600000Y-73660000D03*
D20*
X101600000Y-72760000D03*
D19*
X99060000Y-73660000D03*
D20*
X99060000Y-72760000D03*
D21*
X96520000Y-73660000D03*
D20*
X96520000Y-72760000D03*
D19*
X93980000Y-73660000D03*
D20*
X93980000Y-72760000D03*
D19*
X91440000Y-73660000D03*
D20*
X91440000Y-72760000D03*
D19*
X88900000Y-73660000D03*
D20*
X88900000Y-72760000D03*
D19*
X86360000Y-73660000D03*
D20*
X86360000Y-72760000D03*
D21*
X83820000Y-73660000D03*
D20*
X83820000Y-72760000D03*
D19*
X81280000Y-73660000D03*
D20*
X81280000Y-72760000D03*
D19*
X78740000Y-73660000D03*
D20*
X78740000Y-72760000D03*
D19*
X76200000Y-73660000D03*
D20*
X76200000Y-72760000D03*
D19*
X73660000Y-73660000D03*
D20*
X73660000Y-72760000D03*
D21*
X71120000Y-73660000D03*
D20*
X71120000Y-72760000D03*
D19*
X68580000Y-73660000D03*
D20*
X68580000Y-72760000D03*
D19*
X66040000Y-73660000D03*
D20*
X66040000Y-72760000D03*
D19*
X63500000Y-73660000D03*
D20*
X63500000Y-72760000D03*
D19*
X60960000Y-73660000D03*
D20*
X60960000Y-72760000D03*
D21*
X58420000Y-73660000D03*
D20*
X58420000Y-72760000D03*
D19*
X55880000Y-73660000D03*
D20*
X55880000Y-72760000D03*
D19*
X53340000Y-73660000D03*
D20*
X53340000Y-72760000D03*
D19*
X53340000Y-91440000D03*
D20*
X53340000Y-92340000D03*
D19*
X55880000Y-91440000D03*
D20*
X55880000Y-92340000D03*
D21*
X58420000Y-91440000D03*
D20*
X58420000Y-92340000D03*
D19*
X60960000Y-91440000D03*
D20*
X60960000Y-92340000D03*
D19*
X63500000Y-91440000D03*
D20*
X63500000Y-92340000D03*
D19*
X66040000Y-91440000D03*
D20*
X66040000Y-92340000D03*
D19*
X68580000Y-91440000D03*
D20*
X68580000Y-92340000D03*
D21*
X71120000Y-91440000D03*
D20*
X71120000Y-92340000D03*
D19*
X73660000Y-91440000D03*
D20*
X73660000Y-92340000D03*
D19*
X76200000Y-91440000D03*
D20*
X76200000Y-92340000D03*
D19*
X78740000Y-91440000D03*
D20*
X78740000Y-92340000D03*
D19*
X81280000Y-91440000D03*
D20*
X81280000Y-92340000D03*
D21*
X83820000Y-91440000D03*
D20*
X83820000Y-92340000D03*
D19*
X86360000Y-91440000D03*
D20*
X86360000Y-92340000D03*
D19*
X88900000Y-91440000D03*
D20*
X88900000Y-92340000D03*
D19*
X91440000Y-91440000D03*
D20*
X91440000Y-92340000D03*
D19*
X93980000Y-91440000D03*
D20*
X93980000Y-92340000D03*
D21*
X96520000Y-91440000D03*
D20*
X96520000Y-92340000D03*
D19*
X99060000Y-91440000D03*
D20*
X99060000Y-92340000D03*
D19*
X101600000Y-91440000D03*
D20*
X101600000Y-92340000D03*
D19*
X53570000Y-80010000D03*
D22*
X52670000Y-80010000D03*
D21*
X53570000Y-82550000D03*
D22*
X52670000Y-82550000D03*
D19*
X53570000Y-85090000D03*
D22*
X52670000Y-85090000D03*
%TD*%
D12*
%TO.C,D17*%
X49954344Y-171569707D03*
D13*
X49954344Y-163949707D03*
%TD*%
D14*
%TO.C,SW17*%
X54692583Y-167094658D03*
D15*
X59772583Y-167094658D03*
D14*
X64852583Y-167094658D03*
D16*
X55962583Y-164554658D03*
X62312583Y-162014658D03*
%TD*%
D12*
%TO.C,D2*%
X49954344Y-113950934D03*
D13*
X49954344Y-106330934D03*
%TD*%
D14*
%TO.C,SW6*%
X35683128Y-128959177D03*
D15*
X40763128Y-128959177D03*
D14*
X45843128Y-128959177D03*
D16*
X36953128Y-126419177D03*
X43303128Y-123879177D03*
%TD*%
D14*
%TO.C,SW18*%
X73768354Y-167066356D03*
D15*
X78848354Y-167066356D03*
D14*
X83928354Y-167066356D03*
D16*
X75038354Y-164526356D03*
X81388354Y-161986356D03*
%TD*%
D14*
%TO.C,SW13*%
X73719136Y-148022270D03*
D15*
X78799136Y-148022270D03*
D14*
X83879136Y-148022270D03*
D16*
X74989136Y-145482270D03*
X81339136Y-142942270D03*
%TD*%
D14*
%TO.C,SW4*%
X92985837Y-109916061D03*
D15*
X98065837Y-109916061D03*
D14*
X103145837Y-109916061D03*
D16*
X94255837Y-107376061D03*
X100605837Y-104836061D03*
%TD*%
D12*
%TO.C,D1*%
X31019637Y-113950934D03*
D13*
X31019637Y-106330934D03*
%TD*%
D14*
%TO.C,SW7*%
X54690467Y-128907220D03*
D15*
X59770467Y-128907220D03*
D14*
X64850467Y-128907220D03*
D16*
X55960467Y-126367220D03*
X62310467Y-123827220D03*
%TD*%
D14*
%TO.C,SW16*%
X35645114Y-167066356D03*
D15*
X40725114Y-167066356D03*
D14*
X45805114Y-167066356D03*
D16*
X36915114Y-164526356D03*
X43265114Y-161986356D03*
%TD*%
D14*
%TO.C,SW14*%
X92848413Y-147987279D03*
D15*
X97928413Y-147987279D03*
D14*
X103008413Y-147987279D03*
D16*
X94118413Y-145447279D03*
X100468413Y-142907279D03*
%TD*%
D12*
%TO.C,D19*%
X88314966Y-171569707D03*
D13*
X88314966Y-163949707D03*
%TD*%
D14*
%TO.C,SW20*%
X111771204Y-166986097D03*
D15*
X116851204Y-166986097D03*
D14*
X121931204Y-166986097D03*
D16*
X113041204Y-164446097D03*
X119391204Y-161906097D03*
%TD*%
D12*
%TO.C,D10*%
X107709610Y-133350000D03*
D13*
X107709610Y-125730000D03*
%TD*%
D12*
%TO.C,D3*%
X69274854Y-113950934D03*
D13*
X69274854Y-106330934D03*
%TD*%
D12*
%TO.C,D8*%
X69274854Y-133350000D03*
D13*
X69274854Y-125730000D03*
%TD*%
D14*
%TO.C,SW3*%
X73685978Y-109937687D03*
D15*
X78765978Y-109937687D03*
D14*
X83845978Y-109937687D03*
D16*
X74955978Y-107397687D03*
X81305978Y-104857687D03*
%TD*%
D12*
%TO.C,D20*%
X107709610Y-171569707D03*
D13*
X107709610Y-163949707D03*
%TD*%
D14*
%TO.C,SW11*%
X35686514Y-148042335D03*
D15*
X40766514Y-148042335D03*
D14*
X45846514Y-148042335D03*
D16*
X36956514Y-145502335D03*
X43306514Y-142962335D03*
%TD*%
D12*
%TO.C,D15*%
X107709610Y-153202514D03*
D13*
X107709610Y-145582514D03*
%TD*%
D12*
%TO.C,D12*%
X49954344Y-153202514D03*
D13*
X49954344Y-145582514D03*
%TD*%
D14*
%TO.C,SW19*%
X92870103Y-167146615D03*
D15*
X97950103Y-167146615D03*
D14*
X103030103Y-167146615D03*
D16*
X94140103Y-164606615D03*
X100490103Y-162066615D03*
%TD*%
D14*
%TO.C,SW5*%
X111824335Y-109973847D03*
D15*
X116904335Y-109973847D03*
D14*
X121984335Y-109973847D03*
D16*
X113094335Y-107433847D03*
X119444335Y-104893847D03*
%TD*%
D12*
%TO.C,D11*%
X30779655Y-153202514D03*
D13*
X30779655Y-145582514D03*
%TD*%
D12*
%TO.C,D4*%
X88314966Y-113950934D03*
D13*
X88314966Y-106330934D03*
%TD*%
D12*
%TO.C,D9*%
X88314966Y-133350000D03*
D13*
X88314966Y-125730000D03*
%TD*%
M02*
