M48
; DRILL file {KiCad 7.0.6} date Sun 06 Aug 2023 09:34:32 PM CEST
; FORMAT={-:-/ absolute / inch / decimal}
; #@! TF.CreationDate,2023-08-06T21:34:32+02:00
; #@! TF.GenerationSoftware,Kicad,Pcbnew,7.0.6
; #@! TF.FileFunction,Plated,1,2,PTH
FMAT,2
INCH
; #@! TA.AperFunction,Plated,PTH,ComponentDrill
T1C0.0315
; #@! TA.AperFunction,Plated,PTH,ComponentDrill
T2C0.0400
; #@! TA.AperFunction,Plated,PTH,ComponentDrill
T3C0.0402
; #@! TA.AperFunction,Plated,PTH,ComponentDrill
T4C0.0591
%
G90
G05
T1
X1.2Y-4.95
X1.2Y-5.25
X1.2118Y-5.7316
X1.2118Y-6.0316
X1.2142Y-6.4547
X1.2142Y-6.7547
X1.2212Y-4.1863
X1.2212Y-4.4863
X1.9667Y-4.1863
X1.9667Y-4.4863
X1.9667Y-4.95
X1.9667Y-5.25
X1.9667Y-5.7316
X1.9667Y-6.0316
X1.9667Y-6.4547
X1.9667Y-6.7547
X2.7274Y-4.1863
X2.7274Y-4.4863
X2.7274Y-4.95
X2.7274Y-5.25
X2.7274Y-5.7316
X2.7274Y-6.0316
X2.7274Y-6.4547
X2.7274Y-6.7547
X3.477Y-4.1863
X3.477Y-4.4863
X3.477Y-4.95
X3.477Y-5.25
X3.477Y-5.7316
X3.477Y-6.0316
X3.477Y-6.4547
X3.477Y-6.7547
X4.2405Y-4.1863
X4.2405Y-4.4863
X4.2405Y-4.95
X4.2405Y-5.25
X4.2405Y-5.7316
X4.2405Y-6.0316
X4.2405Y-6.4547
X4.2405Y-6.7547
T2
X1.3Y-2.2
X1.4Y-2.2
X1.5Y-2.2
X1.6Y-2.2
X1.7Y-2.2
X2.4Y-2.2
X2.5Y-2.2
X2.6Y-2.2
X2.7Y-2.2
X2.8Y-2.2
X3.4Y-2.2
X3.5Y-2.2
X3.6Y-2.2
X3.7Y-2.2
X3.8Y-2.2
X4.5Y-2.2
X4.6Y-2.2
X4.7Y-2.2
X4.8Y-2.2
X4.9Y-2.2
T3
X2.1Y-2.9
X2.1Y-3.6
X2.1091Y-3.15
X2.1091Y-3.25
X2.1091Y-3.35
X2.2Y-2.9
X2.2Y-3.6
X2.3Y-2.9
X2.3Y-3.6
X2.4Y-2.9
X2.4Y-3.6
X2.5Y-2.9
X2.5Y-3.6
X2.6Y-2.9
X2.6Y-3.6
X2.7Y-2.9
X2.7Y-3.6
X2.8Y-2.9
X2.8Y-3.6
X2.9Y-2.9
X2.9Y-3.6
X3.0Y-2.9
X3.0Y-3.6
X3.1Y-2.9
X3.1Y-3.6
X3.2Y-2.9
X3.2Y-3.6
X3.3Y-2.9
X3.3Y-3.6
X3.4Y-2.9
X3.4Y-3.6
X3.5Y-2.9
X3.5Y-3.6
X3.6Y-2.9
X3.6Y-3.6
X3.7Y-2.9
X3.7Y-3.6
X3.8Y-2.9
X3.8Y-3.6
X3.9Y-2.9
X3.9Y-3.6
X4.0Y-2.9
X4.0Y-3.6
T4
X1.4501Y-4.2251
X1.4534Y-6.4774
X1.4548Y-4.9771
X1.455Y-5.7284
X1.7001Y-4.1251
X1.7034Y-6.3774
X1.7048Y-4.8771
X1.705Y-5.6284
X2.202Y-5.7246
X2.2021Y-4.2235
X2.2032Y-4.9751
X2.2033Y-6.4785
X2.452Y-5.6246
X2.4521Y-4.1235
X2.4532Y-4.8751
X2.4533Y-6.3785
X2.951Y-4.2283
X2.9523Y-5.7276
X2.9543Y-6.4774
X2.9558Y-4.9756
X3.201Y-4.1283
X3.2023Y-5.6276
X3.2043Y-6.3774
X3.2058Y-4.8756
X3.7015Y-4.9803
X3.7054Y-5.7263
X3.7063Y-6.4806
X3.7109Y-4.2274
X3.9515Y-4.8803
X3.9554Y-5.6263
X3.9563Y-6.3806
X3.9609Y-4.1274
X4.4504Y-6.4743
X4.452Y-5.7276
X4.4525Y-4.2297
X4.4551Y-4.974
X4.7004Y-6.3743
X4.702Y-5.6276
X4.7025Y-4.1297
X4.7051Y-4.874
T0
M30
