M48
; DRILL file {KiCad 7.0.6} date Sun 06 Aug 2023 09:34:32 PM CEST
; FORMAT={-:-/ absolute / inch / decimal}
; #@! TF.CreationDate,2023-08-06T21:34:32+02:00
; #@! TF.GenerationSoftware,Kicad,Pcbnew,7.0.6
; #@! TF.FileFunction,NonPlated,1,2,NPTH
FMAT,2
INCH
; #@! TA.AperFunction,NonPlated,NPTH,ComponentDrill
T1C0.0591
; #@! TA.AperFunction,NonPlated,NPTH,ComponentDrill
T2C0.0689
; #@! TA.AperFunction,NonPlated,NPTH,ComponentDrill
T3C0.0709
; #@! TA.AperFunction,NonPlated,NPTH,ComponentDrill
T4C0.1575
%
G90
G05
T1
X3.8756Y-3.1545
X3.8756Y-3.3455
T2
X1.4001Y-4.3251
X1.4034Y-6.5774
X1.4048Y-5.0771
X1.405Y-5.8284
X1.8001Y-4.3251
X1.8034Y-6.5774
X1.8048Y-5.0771
X1.805Y-5.8284
X2.152Y-5.8246
X2.1521Y-4.3235
X2.1532Y-5.0751
X2.1533Y-6.5785
X2.552Y-5.8246
X2.5521Y-4.3235
X2.5532Y-5.0751
X2.5533Y-6.5785
X2.901Y-4.3283
X2.9023Y-5.8276
X2.9043Y-6.5774
X2.9058Y-5.0756
X3.301Y-4.3283
X3.3023Y-5.8276
X3.3043Y-6.5774
X3.3058Y-5.0756
X3.6515Y-5.0803
X3.6554Y-5.8263
X3.6563Y-6.5806
X3.6609Y-4.3274
X4.0515Y-5.0803
X4.0554Y-5.8263
X4.0563Y-6.5806
X4.0609Y-4.3274
X4.4004Y-6.5743
X4.402Y-5.8276
X4.4025Y-4.3297
X4.4051Y-5.074
X4.8004Y-6.5743
X4.802Y-5.8276
X4.8025Y-4.3297
X4.8051Y-5.074
T3
X3.9949Y-3.1427
X3.9949Y-3.3573
T4
X1.6001Y-4.3251
X1.6034Y-6.5774
X1.6048Y-5.0771
X1.605Y-5.8284
X2.352Y-5.8246
X2.3521Y-4.3235
X2.3532Y-5.0751
X2.3533Y-6.5785
X3.101Y-4.3283
X3.1023Y-5.8276
X3.1043Y-6.5774
X3.1058Y-5.0756
X3.8515Y-5.0803
X3.8554Y-5.8263
X3.8563Y-6.5806
X3.8609Y-4.3274
X4.6004Y-6.5743
X4.602Y-5.8276
X4.6025Y-4.3297
X4.6051Y-5.074
T0
M30
