%TF.GenerationSoftware,KiCad,Pcbnew,7.0.6*%
%TF.CreationDate,2023-08-06T21:34:40+02:00*%
%TF.ProjectId,Macropad,4d616372-6f70-4616-942e-6b696361645f,rev?*%
%TF.SameCoordinates,Original*%
%TF.FileFunction,Copper,L2,Bot*%
%TF.FilePolarity,Positive*%
%FSLAX46Y46*%
G04 Gerber Fmt 4.6, Leading zero omitted, Abs format (unit mm)*
G04 Created by KiCad (PCBNEW 7.0.6) date 2023-08-06 21:34:40*
%MOMM*%
%LPD*%
G01*
G04 APERTURE LIST*
%TA.AperFunction,ComponentPad*%
%ADD10C,1.930400*%
%TD*%
%TA.AperFunction,ComponentPad*%
%ADD11R,1.930400X1.930400*%
%TD*%
%TA.AperFunction,ComponentPad*%
%ADD12R,1.600000X1.600000*%
%TD*%
%TA.AperFunction,ComponentPad*%
%ADD13O,1.600000X1.600000*%
%TD*%
%TA.AperFunction,ComponentPad*%
%ADD14C,2.500000*%
%TD*%
%TA.AperFunction,ComponentPad*%
%ADD15O,1.700000X1.700000*%
%TD*%
%TA.AperFunction,ComponentPad*%
%ADD16R,1.700000X1.700000*%
%TD*%
%TA.AperFunction,Conductor*%
%ADD17C,0.250000*%
%TD*%
G04 APERTURE END LIST*
D10*
%TO.P,U5,CLK,CLK*%
%TO.N,Net-(U1-GPIO4)*%
X114300000Y-55880000D03*
%TO.P,U5,DT,DT*%
%TO.N,Net-(U1-GPIO3)*%
X116840000Y-55880000D03*
D11*
%TO.P,U5,GND,GND*%
%TO.N,Net-(U1-GND-Pad3)*%
X124460000Y-55880000D03*
D10*
%TO.P,U5,SW,SW*%
%TO.N,Net-(U1-GPIO2)*%
X119380000Y-55880000D03*
%TO.P,U5,VCC,VCC*%
%TO.N,Net-(U1-3V3)*%
X121920000Y-55880000D03*
%TD*%
%TO.P,U4,CLK,CLK*%
%TO.N,Net-(U1-GPIO8)*%
X86360000Y-55880000D03*
%TO.P,U4,DT,DT*%
%TO.N,Net-(U1-GPIO7)*%
X88900000Y-55880000D03*
D11*
%TO.P,U4,GND,GND*%
%TO.N,Net-(U1-GND-Pad8)*%
X96520000Y-55880000D03*
D10*
%TO.P,U4,SW,SW*%
%TO.N,Net-(U1-GPIO6)*%
X91440000Y-55880000D03*
%TO.P,U4,VCC,VCC*%
%TO.N,Net-(U1-3V3)*%
X93980000Y-55880000D03*
%TD*%
%TO.P,U3,CLK,CLK*%
%TO.N,Net-(U1-GPIO12)*%
X60960000Y-55880000D03*
%TO.P,U3,DT,DT*%
%TO.N,Net-(U1-GPIO11)*%
X63500000Y-55880000D03*
D11*
%TO.P,U3,GND,GND*%
%TO.N,Net-(U1-GND-Pad13)*%
X71120000Y-55880000D03*
D10*
%TO.P,U3,SW,SW*%
%TO.N,Net-(U1-GPIO10)*%
X66040000Y-55880000D03*
%TO.P,U3,VCC,VCC*%
%TO.N,Net-(U1-3V3)*%
X68580000Y-55880000D03*
%TD*%
%TO.P,U2,CLK,CLK*%
%TO.N,Net-(U1-GPIO15)*%
X33020000Y-55880000D03*
%TO.P,U2,DT,DT*%
%TO.N,Net-(U1-GPIO14)*%
X35560000Y-55880000D03*
D11*
%TO.P,U2,GND,GND*%
%TO.N,Net-(U1-GND-Pad18)*%
X43180000Y-55880000D03*
D10*
%TO.P,U2,SW,SW*%
%TO.N,Net-(U1-GPIO13)*%
X38100000Y-55880000D03*
%TO.P,U2,VCC,VCC*%
%TO.N,Net-(U1-3V3)*%
X40640000Y-55880000D03*
%TD*%
D12*
%TO.P,D7,1,K*%
%TO.N,Net-(D10-K)*%
X49954344Y-133350000D03*
D13*
%TO.P,D7,2,A*%
%TO.N,Net-(D7-A)*%
X49954344Y-125730000D03*
%TD*%
D14*
%TO.P,SW9,1*%
%TO.N,Net-(D9-A)*%
X94017598Y-126499436D03*
%TO.P,SW9,2*%
%TO.N,Net-(U1-GPIO19)*%
X100367598Y-123959436D03*
%TD*%
%TO.P,SW8,1*%
%TO.N,Net-(D8-A)*%
X75076367Y-126379047D03*
%TO.P,SW8,2*%
%TO.N,Net-(U1-GPIO18)*%
X81426367Y-123839047D03*
%TD*%
D12*
%TO.P,D18,1,K*%
%TO.N,Net-(D16-K)*%
X69274854Y-171569707D03*
D13*
%TO.P,D18,2,A*%
%TO.N,Net-(D18-A)*%
X69274854Y-163949707D03*
%TD*%
D14*
%TO.P,SW10,1*%
%TO.N,Net-(D10-A)*%
X113159477Y-126338917D03*
%TO.P,SW10,2*%
%TO.N,Net-(U1-GPIO20)*%
X119509477Y-123798917D03*
%TD*%
%TO.P,SW2,1*%
%TO.N,Net-(D2-A)*%
X55934488Y-107277298D03*
%TO.P,SW2,2*%
%TO.N,Net-(U1-GPIO17)*%
X62284488Y-104737298D03*
%TD*%
D12*
%TO.P,D13,1,K*%
%TO.N,Net-(D11-K)*%
X69274854Y-153202514D03*
D13*
%TO.P,D13,2,A*%
%TO.N,Net-(D13-A)*%
X69274854Y-145582514D03*
%TD*%
D12*
%TO.P,D6,1,K*%
%TO.N,Net-(D10-K)*%
X30480000Y-133350000D03*
D13*
%TO.P,D6,2,A*%
%TO.N,Net-(D6-A)*%
X30480000Y-125730000D03*
%TD*%
D12*
%TO.P,D5,1,K*%
%TO.N,Net-(D1-K)*%
X107709610Y-113950934D03*
D13*
%TO.P,D5,2,A*%
%TO.N,Net-(D5-A)*%
X107709610Y-106330934D03*
%TD*%
D14*
%TO.P,SW1,1*%
%TO.N,Net-(D1-A)*%
X36832739Y-107317427D03*
%TO.P,SW1,2*%
%TO.N,Net-(U1-GPIO16)*%
X43182739Y-104777427D03*
%TD*%
%TO.P,SW12,1*%
%TO.N,Net-(D12-A)*%
X55929848Y-145406023D03*
%TO.P,SW12,2*%
%TO.N,Net-(U1-GPIO17)*%
X62279848Y-142866023D03*
%TD*%
%TO.P,SW15,1*%
%TO.N,Net-(D15-A)*%
X113079708Y-145480720D03*
%TO.P,SW15,2*%
%TO.N,Net-(U1-GPIO20)*%
X119429708Y-142940720D03*
%TD*%
D12*
%TO.P,D14,1,K*%
%TO.N,Net-(D11-K)*%
X88314966Y-153202514D03*
D13*
%TO.P,D14,2,A*%
%TO.N,Net-(D14-A)*%
X88314966Y-145582514D03*
%TD*%
D12*
%TO.P,D16,1,K*%
%TO.N,Net-(D16-K)*%
X30840100Y-171569707D03*
D13*
%TO.P,D16,2,A*%
%TO.N,Net-(D16-A)*%
X30840100Y-163949707D03*
%TD*%
D15*
%TO.P,U1,1,GPIO0*%
%TO.N,unconnected-(U1-GPIO0-Pad1)*%
X101600000Y-73660000D03*
%TO.P,U1,2,GPIO1*%
%TO.N,unconnected-(U1-GPIO1-Pad2)*%
X99060000Y-73660000D03*
D16*
%TO.P,U1,3,GND*%
%TO.N,Net-(U1-GND-Pad3)*%
X96520000Y-73660000D03*
D15*
%TO.P,U1,4,GPIO2*%
%TO.N,Net-(U1-GPIO2)*%
X93980000Y-73660000D03*
%TO.P,U1,5,GPIO3*%
%TO.N,Net-(U1-GPIO3)*%
X91440000Y-73660000D03*
%TO.P,U1,6,GPIO4*%
%TO.N,Net-(U1-GPIO4)*%
X88900000Y-73660000D03*
%TO.P,U1,7,GPIO5*%
%TO.N,unconnected-(U1-GPIO5-Pad7)*%
X86360000Y-73660000D03*
D16*
%TO.P,U1,8,GND*%
%TO.N,Net-(U1-GND-Pad8)*%
X83820000Y-73660000D03*
D15*
%TO.P,U1,9,GPIO6*%
%TO.N,Net-(U1-GPIO6)*%
X81280000Y-73660000D03*
%TO.P,U1,10,GPIO7*%
%TO.N,Net-(U1-GPIO7)*%
X78740000Y-73660000D03*
%TO.P,U1,11,GPIO8*%
%TO.N,Net-(U1-GPIO8)*%
X76200000Y-73660000D03*
%TO.P,U1,12,GPIO9*%
%TO.N,unconnected-(U1-GPIO9-Pad12)*%
X73660000Y-73660000D03*
D16*
%TO.P,U1,13,GND*%
%TO.N,Net-(U1-GND-Pad13)*%
X71120000Y-73660000D03*
D15*
%TO.P,U1,14,GPIO10*%
%TO.N,Net-(U1-GPIO10)*%
X68580000Y-73660000D03*
%TO.P,U1,15,GPIO11*%
%TO.N,Net-(U1-GPIO11)*%
X66040000Y-73660000D03*
%TO.P,U1,16,GPIO12*%
%TO.N,Net-(U1-GPIO12)*%
X63500000Y-73660000D03*
%TO.P,U1,17,GPIO13*%
%TO.N,Net-(U1-GPIO13)*%
X60960000Y-73660000D03*
D16*
%TO.P,U1,18,GND*%
%TO.N,Net-(U1-GND-Pad18)*%
X58420000Y-73660000D03*
D15*
%TO.P,U1,19,GPIO14*%
%TO.N,Net-(U1-GPIO14)*%
X55880000Y-73660000D03*
%TO.P,U1,20,GPIO15*%
%TO.N,Net-(U1-GPIO15)*%
X53340000Y-73660000D03*
%TO.P,U1,21,GPIO16*%
%TO.N,Net-(U1-GPIO16)*%
X53340000Y-91440000D03*
%TO.P,U1,22,GPIO17*%
%TO.N,Net-(U1-GPIO17)*%
X55880000Y-91440000D03*
D16*
%TO.P,U1,23,GND*%
%TO.N,unconnected-(U1-GND-Pad23)*%
X58420000Y-91440000D03*
D15*
%TO.P,U1,24,GPIO18*%
%TO.N,Net-(U1-GPIO18)*%
X60960000Y-91440000D03*
%TO.P,U1,25,GPIO19*%
%TO.N,Net-(U1-GPIO19)*%
X63500000Y-91440000D03*
%TO.P,U1,26,GPIO20*%
%TO.N,Net-(U1-GPIO20)*%
X66040000Y-91440000D03*
%TO.P,U1,27,GPIO21*%
%TO.N,unconnected-(U1-GPIO21-Pad27)*%
X68580000Y-91440000D03*
D16*
%TO.P,U1,28,GND*%
%TO.N,unconnected-(U1-GND-Pad28)*%
X71120000Y-91440000D03*
D15*
%TO.P,U1,29,GPIO22*%
%TO.N,Net-(D1-K)*%
X73660000Y-91440000D03*
%TO.P,U1,30,RUN*%
%TO.N,unconnected-(U1-RUN-Pad30)*%
X76200000Y-91440000D03*
%TO.P,U1,31,GPIO26_ADC0*%
%TO.N,Net-(D10-K)*%
X78740000Y-91440000D03*
%TO.P,U1,32,GPIO27_ADC1*%
%TO.N,Net-(D11-K)*%
X81280000Y-91440000D03*
D16*
%TO.P,U1,33,AGND*%
%TO.N,unconnected-(U1-AGND-Pad33)*%
X83820000Y-91440000D03*
D15*
%TO.P,U1,34,GPIO28_ADC2*%
%TO.N,Net-(D16-K)*%
X86360000Y-91440000D03*
%TO.P,U1,35,ADC_VREF*%
%TO.N,unconnected-(U1-ADC_VREF-Pad35)*%
X88900000Y-91440000D03*
%TO.P,U1,36,3V3*%
%TO.N,Net-(U1-3V3)*%
X91440000Y-91440000D03*
%TO.P,U1,37,3V3_EN*%
%TO.N,unconnected-(U1-3V3_EN-Pad37)*%
X93980000Y-91440000D03*
D16*
%TO.P,U1,38,GND*%
%TO.N,unconnected-(U1-GND-Pad38)*%
X96520000Y-91440000D03*
D15*
%TO.P,U1,39,VSYS*%
%TO.N,unconnected-(U1-VSYS-Pad39)*%
X99060000Y-91440000D03*
%TO.P,U1,40,VBUS*%
%TO.N,unconnected-(U1-VBUS-Pad40)*%
X101600000Y-91440000D03*
%TO.P,U1,41,SWCLK*%
%TO.N,unconnected-(U1-SWCLK-Pad41)*%
X53570000Y-80010000D03*
D16*
%TO.P,U1,42,GND*%
%TO.N,unconnected-(U1-GND-Pad42)*%
X53570000Y-82550000D03*
D15*
%TO.P,U1,43,SWDIO*%
%TO.N,unconnected-(U1-SWDIO-Pad43)*%
X53570000Y-85090000D03*
%TD*%
D12*
%TO.P,D17,1,K*%
%TO.N,Net-(D16-K)*%
X49954344Y-171569707D03*
D13*
%TO.P,D17,2,A*%
%TO.N,Net-(D17-A)*%
X49954344Y-163949707D03*
%TD*%
D14*
%TO.P,SW17,1*%
%TO.N,Net-(D17-A)*%
X55962583Y-164554658D03*
%TO.P,SW17,2*%
%TO.N,Net-(U1-GPIO17)*%
X62312583Y-162014658D03*
%TD*%
D12*
%TO.P,D2,1,K*%
%TO.N,Net-(D1-K)*%
X49954344Y-113950934D03*
D13*
%TO.P,D2,2,A*%
%TO.N,Net-(D2-A)*%
X49954344Y-106330934D03*
%TD*%
D14*
%TO.P,SW6,1*%
%TO.N,Net-(D6-A)*%
X36953128Y-126419177D03*
%TO.P,SW6,2*%
%TO.N,Net-(U1-GPIO16)*%
X43303128Y-123879177D03*
%TD*%
%TO.P,SW18,1*%
%TO.N,Net-(D18-A)*%
X75038354Y-164526356D03*
%TO.P,SW18,2*%
%TO.N,Net-(U1-GPIO18)*%
X81388354Y-161986356D03*
%TD*%
%TO.P,SW13,1*%
%TO.N,Net-(D13-A)*%
X74989136Y-145482270D03*
%TO.P,SW13,2*%
%TO.N,Net-(U1-GPIO18)*%
X81339136Y-142942270D03*
%TD*%
%TO.P,SW4,1*%
%TO.N,Net-(D4-A)*%
X94255837Y-107376061D03*
%TO.P,SW4,2*%
%TO.N,Net-(U1-GPIO19)*%
X100605837Y-104836061D03*
%TD*%
D12*
%TO.P,D1,1,K*%
%TO.N,Net-(D1-K)*%
X31019637Y-113950934D03*
D13*
%TO.P,D1,2,A*%
%TO.N,Net-(D1-A)*%
X31019637Y-106330934D03*
%TD*%
D14*
%TO.P,SW7,1*%
%TO.N,Net-(D7-A)*%
X55960467Y-126367220D03*
%TO.P,SW7,2*%
%TO.N,Net-(U1-GPIO17)*%
X62310467Y-123827220D03*
%TD*%
%TO.P,SW16,1*%
%TO.N,Net-(D16-A)*%
X36915114Y-164526356D03*
%TO.P,SW16,2*%
%TO.N,Net-(U1-GPIO16)*%
X43265114Y-161986356D03*
%TD*%
%TO.P,SW14,1*%
%TO.N,Net-(D14-A)*%
X94118413Y-145447279D03*
%TO.P,SW14,2*%
%TO.N,Net-(U1-GPIO19)*%
X100468413Y-142907279D03*
%TD*%
D12*
%TO.P,D19,1,K*%
%TO.N,Net-(D16-K)*%
X88314966Y-171569707D03*
D13*
%TO.P,D19,2,A*%
%TO.N,Net-(D19-A)*%
X88314966Y-163949707D03*
%TD*%
D14*
%TO.P,SW20,1*%
%TO.N,Net-(D20-A)*%
X113041204Y-164446097D03*
%TO.P,SW20,2*%
%TO.N,Net-(U1-GPIO20)*%
X119391204Y-161906097D03*
%TD*%
D12*
%TO.P,D10,1,K*%
%TO.N,Net-(D10-K)*%
X107709610Y-133350000D03*
D13*
%TO.P,D10,2,A*%
%TO.N,Net-(D10-A)*%
X107709610Y-125730000D03*
%TD*%
D12*
%TO.P,D3,1,K*%
%TO.N,Net-(D1-K)*%
X69274854Y-113950934D03*
D13*
%TO.P,D3,2,A*%
%TO.N,Net-(D3-A)*%
X69274854Y-106330934D03*
%TD*%
D12*
%TO.P,D8,1,K*%
%TO.N,Net-(D10-K)*%
X69274854Y-133350000D03*
D13*
%TO.P,D8,2,A*%
%TO.N,Net-(D8-A)*%
X69274854Y-125730000D03*
%TD*%
D14*
%TO.P,SW3,1*%
%TO.N,Net-(D3-A)*%
X74955978Y-107397687D03*
%TO.P,SW3,2*%
%TO.N,Net-(U1-GPIO18)*%
X81305978Y-104857687D03*
%TD*%
D12*
%TO.P,D20,1,K*%
%TO.N,Net-(D16-K)*%
X107709610Y-171569707D03*
D13*
%TO.P,D20,2,A*%
%TO.N,Net-(D20-A)*%
X107709610Y-163949707D03*
%TD*%
D14*
%TO.P,SW11,1*%
%TO.N,Net-(D11-A)*%
X36956514Y-145502335D03*
%TO.P,SW11,2*%
%TO.N,Net-(U1-GPIO16)*%
X43306514Y-142962335D03*
%TD*%
D12*
%TO.P,D15,1,K*%
%TO.N,Net-(D11-K)*%
X107709610Y-153202514D03*
D13*
%TO.P,D15,2,A*%
%TO.N,Net-(D15-A)*%
X107709610Y-145582514D03*
%TD*%
D12*
%TO.P,D12,1,K*%
%TO.N,Net-(D11-K)*%
X49954344Y-153202514D03*
D13*
%TO.P,D12,2,A*%
%TO.N,Net-(D12-A)*%
X49954344Y-145582514D03*
%TD*%
D14*
%TO.P,SW19,1*%
%TO.N,Net-(D19-A)*%
X94140103Y-164606615D03*
%TO.P,SW19,2*%
%TO.N,Net-(U1-GPIO19)*%
X100490103Y-162066615D03*
%TD*%
%TO.P,SW5,1*%
%TO.N,Net-(D5-A)*%
X113094335Y-107433847D03*
%TO.P,SW5,2*%
%TO.N,Net-(U1-GPIO20)*%
X119444335Y-104893847D03*
%TD*%
D12*
%TO.P,D11,1,K*%
%TO.N,Net-(D11-K)*%
X30779655Y-153202514D03*
D13*
%TO.P,D11,2,A*%
%TO.N,Net-(D11-A)*%
X30779655Y-145582514D03*
%TD*%
D12*
%TO.P,D4,1,K*%
%TO.N,Net-(D1-K)*%
X88314966Y-113950934D03*
D13*
%TO.P,D4,2,A*%
%TO.N,Net-(D4-A)*%
X88314966Y-106330934D03*
%TD*%
D12*
%TO.P,D9,1,K*%
%TO.N,Net-(D10-K)*%
X88314966Y-133350000D03*
D13*
%TO.P,D9,2,A*%
%TO.N,Net-(D9-A)*%
X88314966Y-125730000D03*
%TD*%
D17*
%TO.N,Net-(U1-3V3)*%
X91440000Y-91440000D02*
X96330000Y-86550000D01*
X96330000Y-86550000D02*
X101998122Y-86550000D01*
X101998122Y-86550000D02*
X120629800Y-67918322D01*
X120629800Y-67918322D02*
X120629800Y-57170200D01*
X93980000Y-55880000D02*
X95270200Y-57170200D01*
X95270200Y-57170200D02*
X120629800Y-57170200D01*
X120629800Y-57170200D02*
X121920000Y-55880000D01*
X68580000Y-55880000D02*
X69870200Y-57170200D01*
X92689800Y-57170200D02*
X93980000Y-55880000D01*
X69870200Y-57170200D02*
X92689800Y-57170200D01*
X40640000Y-55880000D02*
X41930200Y-57170200D01*
X67289800Y-57170200D02*
X68580000Y-55880000D01*
X41930200Y-57170200D02*
X67289800Y-57170200D01*
%TO.N,Net-(U1-GPIO20)*%
X119444335Y-104893847D02*
X116150488Y-101600000D01*
X116150488Y-101600000D02*
X76200000Y-101600000D01*
X76200000Y-101600000D02*
X66040000Y-91440000D01*
%TO.N,Net-(U1-GPIO19)*%
X100605837Y-104836061D02*
X99052463Y-103282687D01*
X99052463Y-103282687D02*
X75342687Y-103282687D01*
X75342687Y-103282687D02*
X63500000Y-91440000D01*
%TO.N,Net-(U1-GPIO18)*%
X81305978Y-104857687D02*
X74377687Y-104857687D01*
X74377687Y-104857687D02*
X60960000Y-91440000D01*
%TO.N,Net-(U1-GPIO17)*%
X62284488Y-104737298D02*
X62284488Y-97844488D01*
X62284488Y-97844488D02*
X55880000Y-91440000D01*
%TO.N,Net-(U1-GPIO16)*%
X43182739Y-104777427D02*
X43182739Y-101597261D01*
X43182739Y-101597261D02*
X53340000Y-91440000D01*
%TO.N,Net-(U1-GPIO20)*%
X119509477Y-123798917D02*
X119509477Y-104958989D01*
X119509477Y-104958989D02*
X119444335Y-104893847D01*
X119429708Y-142940720D02*
X119429708Y-123878686D01*
X119429708Y-123878686D02*
X119509477Y-123798917D01*
X119391204Y-161906097D02*
X119391204Y-142979224D01*
X119391204Y-142979224D02*
X119429708Y-142940720D01*
%TO.N,Net-(U1-GPIO19)*%
X100468413Y-142907279D02*
X100468413Y-162044925D01*
X100468413Y-162044925D02*
X100490103Y-162066615D01*
X100367598Y-123959436D02*
X100367598Y-142806464D01*
X100367598Y-142806464D02*
X100468413Y-142907279D01*
X100605837Y-104836061D02*
X100605837Y-123721197D01*
X100605837Y-123721197D02*
X100367598Y-123959436D01*
%TO.N,Net-(U1-GPIO18)*%
X81426367Y-123839047D02*
X81426367Y-104978076D01*
X81426367Y-104978076D02*
X81305978Y-104857687D01*
X81339136Y-142942270D02*
X81339136Y-123926278D01*
X81339136Y-123926278D02*
X81426367Y-123839047D01*
X81388354Y-161986356D02*
X81388354Y-142991488D01*
X81388354Y-142991488D02*
X81339136Y-142942270D01*
%TO.N,Net-(U1-GPIO17)*%
X62279848Y-142866023D02*
X62279848Y-161981923D01*
X62279848Y-161981923D02*
X62312583Y-162014658D01*
X62310467Y-123827220D02*
X62310467Y-142835404D01*
X62310467Y-142835404D02*
X62279848Y-142866023D01*
X62284488Y-104737298D02*
X62284488Y-123801241D01*
X62284488Y-123801241D02*
X62310467Y-123827220D01*
%TO.N,Net-(U1-GPIO16)*%
X43306514Y-142962335D02*
X43306514Y-161944956D01*
X43306514Y-161944956D02*
X43265114Y-161986356D01*
X43303128Y-123879177D02*
X43303128Y-142958949D01*
X43303128Y-142958949D02*
X43306514Y-142962335D01*
X43182739Y-104777427D02*
X43182739Y-123758788D01*
X43182739Y-123758788D02*
X43303128Y-123879177D01*
%TD*%
M02*
