  0
SECTION
  2
HEADER
  9
$ACADVER
  1
AC1009
  9
$FILLMODE
 70
 0
  9
$SPLFRAME
 70
 1
  9
$EXTMIN
 10
0
 20
0
 30
0.0
  9
$EXTMAX
 10
1058.33
 20
1058.33
 30
0.0
  0
ENDSEC
  0
SECTION
  2
TABLES
  0
TABLE
  2
LAYER
 70
1
  0
LAYER
  2
0
 70
     0
 62
     7
  6
CONTINUOUS
  0
ENDTAB
  0
ENDSEC
  0
SECTION
  2
ENTITIES
  0
LINE
  8
0
 62
     0
 10
0.0950846
 20
166.416
 30
0.0
 11
115.345
 21
166.416
 31
0.0
  0
LINE
  8
0
 62
     0
 10
115.345
 20
166.416
 30
0.0
 11
115.345
 21
0.214974
 31
0.0
  0
LINE
  8
0
 62
     0
 10
115.345
 20
0.214974
 30
0.0
 11
0.0950846
 21
0.214974
 31
0.0
  0
LINE
  8
0
 62
     0
 10
0.0950846
 20
0.214974
 30
0.0
 11
0.0950846
 21
166.416
 31
0.0
  0
LINE
  8
0
 62
     0
 10
12.6201
 20
26.7422
 30
0.0
 11
12.6201
 21
25.7418
 31
0.0
  0
LINE
  8
0
 62
     0
 10
12.6201
 20
25.7418
 30
0.0
 11
11.8181
 21
25.7418
 31
0.0
  0
LINE
  8
0
 62
     0
 10
11.8181
 20
25.7418
 30
0.0
 11
11.8181
 21
22.6412
 31
0.0
  0
LINE
  8
0
 62
     0
 10
11.8181
 20
22.6412
 30
0.0
 11
12.6201
 21
22.6412
 31
0.0
  0
LINE
  8
0
 62
     0
 10
12.6201
 20
22.6412
 30
0.0
 11
12.6201
 21
16.841
 31
0.0
  0
LINE
  8
0
 62
     0
 10
12.6201
 20
16.841
 30
0.0
 11
11.8181
 21
16.841
 31
0.0
  0
LINE
  8
0
 62
     0
 10
11.8181
 20
16.841
 30
0.0
 11
11.8181
 21
13.7418
 31
0.0
  0
LINE
  8
0
 62
     0
 10
11.8181
 20
13.7418
 30
0.0
 11
12.6201
 21
13.7418
 31
0.0
  0
LINE
  8
0
 62
     0
 10
12.6201
 20
13.7418
 30
0.0
 11
12.6201
 21
12.7413
 31
0.0
  0
LINE
  8
0
 62
     0
 10
12.6201
 20
12.7413
 30
0.0
 11
26.6196
 21
12.7413
 31
0.0
  0
LINE
  8
0
 62
     0
 10
26.6196
 20
12.7413
 30
0.0
 11
26.6196
 21
13.7418
 31
0.0
  0
LINE
  8
0
 62
     0
 10
26.6196
 20
13.7418
 30
0.0
 11
27.4175
 21
13.7418
 31
0.0
  0
LINE
  8
0
 62
     0
 10
27.4175
 20
13.7418
 30
0.0
 11
27.4175
 21
16.841
 31
0.0
  0
LINE
  8
0
 62
     0
 10
27.4175
 20
16.841
 30
0.0
 11
26.6196
 21
16.841
 31
0.0
  0
LINE
  8
0
 62
     0
 10
26.6196
 20
16.841
 30
0.0
 11
26.6196
 21
22.6412
 31
0.0
  0
LINE
  8
0
 62
     0
 10
26.6196
 20
22.6412
 30
0.0
 11
27.4175
 21
22.6412
 31
0.0
  0
LINE
  8
0
 62
     0
 10
27.4175
 20
22.6412
 30
0.0
 11
27.4175
 21
25.7418
 31
0.0
  0
LINE
  8
0
 62
     0
 10
27.4175
 20
25.7418
 30
0.0
 11
26.6196
 21
25.7418
 31
0.0
  0
LINE
  8
0
 62
     0
 10
26.6196
 20
25.7418
 30
0.0
 11
26.6196
 21
26.7422
 31
0.0
  0
LINE
  8
0
 62
     0
 10
26.6196
 20
26.7422
 30
0.0
 11
12.6201
 21
26.7422
 31
0.0
  0
LINE
  8
0
 62
     0
 10
31.6701
 20
26.7422
 30
0.0
 11
31.6701
 21
25.7418
 31
0.0
  0
LINE
  8
0
 62
     0
 10
31.6701
 20
25.7418
 30
0.0
 11
30.8694
 21
25.7418
 31
0.0
  0
LINE
  8
0
 62
     0
 10
30.8694
 20
25.7418
 30
0.0
 11
30.8694
 21
22.6412
 31
0.0
  0
LINE
  8
0
 62
     0
 10
30.8694
 20
22.6412
 30
0.0
 11
31.6701
 21
22.6412
 31
0.0
  0
LINE
  8
0
 62
     0
 10
31.6701
 20
22.6412
 30
0.0
 11
31.6701
 21
16.841
 31
0.0
  0
LINE
  8
0
 62
     0
 10
31.6701
 20
16.841
 30
0.0
 11
30.8694
 21
16.841
 31
0.0
  0
LINE
  8
0
 62
     0
 10
30.8694
 20
16.841
 30
0.0
 11
30.8694
 21
13.7418
 31
0.0
  0
LINE
  8
0
 62
     0
 10
30.8694
 20
13.7418
 30
0.0
 11
31.6701
 21
13.7418
 31
0.0
  0
LINE
  8
0
 62
     0
 10
31.6701
 20
13.7418
 30
0.0
 11
31.6701
 21
12.7413
 31
0.0
  0
LINE
  8
0
 62
     0
 10
31.6701
 20
12.7413
 30
0.0
 11
45.6696
 21
12.7413
 31
0.0
  0
LINE
  8
0
 62
     0
 10
45.6696
 20
12.7413
 30
0.0
 11
45.6696
 21
13.7418
 31
0.0
  0
LINE
  8
0
 62
     0
 10
45.6696
 20
13.7418
 30
0.0
 11
46.4689
 21
13.7418
 31
0.0
  0
LINE
  8
0
 62
     0
 10
46.4689
 20
13.7418
 30
0.0
 11
46.4689
 21
16.841
 31
0.0
  0
LINE
  8
0
 62
     0
 10
46.4689
 20
16.841
 30
0.0
 11
45.6696
 21
16.841
 31
0.0
  0
LINE
  8
0
 62
     0
 10
45.6696
 20
16.841
 30
0.0
 11
45.6696
 21
22.6412
 31
0.0
  0
LINE
  8
0
 62
     0
 10
45.6696
 20
22.6412
 30
0.0
 11
46.4689
 21
22.6412
 31
0.0
  0
LINE
  8
0
 62
     0
 10
46.4689
 20
22.6412
 30
0.0
 11
46.4689
 21
25.7418
 31
0.0
  0
LINE
  8
0
 62
     0
 10
46.4689
 20
25.7418
 30
0.0
 11
45.6696
 21
25.7418
 31
0.0
  0
LINE
  8
0
 62
     0
 10
45.6696
 20
25.7418
 30
0.0
 11
45.6696
 21
26.7422
 31
0.0
  0
LINE
  8
0
 62
     0
 10
45.6696
 20
26.7422
 30
0.0
 11
31.6701
 21
26.7422
 31
0.0
  0
LINE
  8
0
 62
     0
 10
50.7199
 20
26.7422
 30
0.0
 11
50.7199
 21
25.7418
 31
0.0
  0
LINE
  8
0
 62
     0
 10
50.7199
 20
25.7418
 30
0.0
 11
49.9195
 21
25.7418
 31
0.0
  0
LINE
  8
0
 62
     0
 10
49.9195
 20
25.7418
 30
0.0
 11
49.9195
 21
22.6412
 31
0.0
  0
LINE
  8
0
 62
     0
 10
49.9195
 20
22.6412
 30
0.0
 11
50.7199
 21
22.6412
 31
0.0
  0
LINE
  8
0
 62
     0
 10
50.7199
 20
22.6412
 30
0.0
 11
50.7199
 21
16.841
 31
0.0
  0
LINE
  8
0
 62
     0
 10
50.7199
 20
16.841
 30
0.0
 11
49.9195
 21
16.841
 31
0.0
  0
LINE
  8
0
 62
     0
 10
49.9195
 20
16.841
 30
0.0
 11
49.9195
 21
13.7418
 31
0.0
  0
LINE
  8
0
 62
     0
 10
49.9195
 20
13.7418
 30
0.0
 11
50.7199
 21
13.7418
 31
0.0
  0
LINE
  8
0
 62
     0
 10
50.7199
 20
13.7418
 30
0.0
 11
50.7199
 21
12.7413
 31
0.0
  0
LINE
  8
0
 62
     0
 10
50.7199
 20
12.7413
 30
0.0
 11
64.7196
 21
12.7413
 31
0.0
  0
LINE
  8
0
 62
     0
 10
64.7196
 20
12.7413
 30
0.0
 11
64.7196
 21
13.7418
 31
0.0
  0
LINE
  8
0
 62
     0
 10
64.7196
 20
13.7418
 30
0.0
 11
65.519
 21
13.7418
 31
0.0
  0
LINE
  8
0
 62
     0
 10
65.519
 20
13.7418
 30
0.0
 11
65.519
 21
16.841
 31
0.0
  0
LINE
  8
0
 62
     0
 10
65.519
 20
16.841
 30
0.0
 11
64.7196
 21
16.841
 31
0.0
  0
LINE
  8
0
 62
     0
 10
64.7196
 20
16.841
 30
0.0
 11
64.7196
 21
22.6412
 31
0.0
  0
LINE
  8
0
 62
     0
 10
64.7196
 20
22.6412
 30
0.0
 11
65.519
 21
22.6412
 31
0.0
  0
LINE
  8
0
 62
     0
 10
65.519
 20
22.6412
 30
0.0
 11
65.519
 21
25.7418
 31
0.0
  0
LINE
  8
0
 62
     0
 10
65.519
 20
25.7418
 30
0.0
 11
64.7196
 21
25.7418
 31
0.0
  0
LINE
  8
0
 62
     0
 10
64.7196
 20
25.7418
 30
0.0
 11
64.7196
 21
26.7422
 31
0.0
  0
LINE
  8
0
 62
     0
 10
64.7196
 20
26.7422
 30
0.0
 11
50.7199
 21
26.7422
 31
0.0
  0
LINE
  8
0
 62
     0
 10
69.7699
 20
26.7422
 30
0.0
 11
69.7699
 21
25.7418
 31
0.0
  0
LINE
  8
0
 62
     0
 10
69.7699
 20
25.7418
 30
0.0
 11
68.9695
 21
25.7418
 31
0.0
  0
LINE
  8
0
 62
     0
 10
68.9695
 20
25.7418
 30
0.0
 11
68.9695
 21
22.6412
 31
0.0
  0
LINE
  8
0
 62
     0
 10
68.9695
 20
22.6412
 30
0.0
 11
69.7699
 21
22.6412
 31
0.0
  0
LINE
  8
0
 62
     0
 10
69.7699
 20
22.6412
 30
0.0
 11
69.7699
 21
16.841
 31
0.0
  0
LINE
  8
0
 62
     0
 10
69.7699
 20
16.841
 30
0.0
 11
68.9695
 21
16.841
 31
0.0
  0
LINE
  8
0
 62
     0
 10
68.9695
 20
16.841
 30
0.0
 11
68.9695
 21
13.7418
 31
0.0
  0
LINE
  8
0
 62
     0
 10
68.9695
 20
13.7418
 30
0.0
 11
69.7699
 21
13.7418
 31
0.0
  0
LINE
  8
0
 62
     0
 10
69.7699
 20
13.7418
 30
0.0
 11
69.7699
 21
12.7413
 31
0.0
  0
LINE
  8
0
 62
     0
 10
69.7699
 20
12.7413
 30
0.0
 11
83.7696
 21
12.7413
 31
0.0
  0
LINE
  8
0
 62
     0
 10
83.7696
 20
12.7413
 30
0.0
 11
83.7696
 21
13.7418
 31
0.0
  0
LINE
  8
0
 62
     0
 10
83.7696
 20
13.7418
 30
0.0
 11
84.569
 21
13.7418
 31
0.0
  0
LINE
  8
0
 62
     0
 10
84.569
 20
13.7418
 30
0.0
 11
84.569
 21
16.841
 31
0.0
  0
LINE
  8
0
 62
     0
 10
84.569
 20
16.841
 30
0.0
 11
83.7696
 21
16.841
 31
0.0
  0
LINE
  8
0
 62
     0
 10
83.7696
 20
16.841
 30
0.0
 11
83.7696
 21
22.6412
 31
0.0
  0
LINE
  8
0
 62
     0
 10
83.7696
 20
22.6412
 30
0.0
 11
84.569
 21
22.6412
 31
0.0
  0
LINE
  8
0
 62
     0
 10
84.569
 20
22.6412
 30
0.0
 11
84.569
 21
25.7418
 31
0.0
  0
LINE
  8
0
 62
     0
 10
84.569
 20
25.7418
 30
0.0
 11
83.7696
 21
25.7418
 31
0.0
  0
LINE
  8
0
 62
     0
 10
83.7696
 20
25.7418
 30
0.0
 11
83.7696
 21
26.7422
 31
0.0
  0
LINE
  8
0
 62
     0
 10
83.7696
 20
26.7422
 30
0.0
 11
69.7699
 21
26.7422
 31
0.0
  0
LINE
  8
0
 62
     0
 10
88.8199
 20
26.7422
 30
0.0
 11
88.8199
 21
25.7418
 31
0.0
  0
LINE
  8
0
 62
     0
 10
88.8199
 20
25.7418
 30
0.0
 11
88.0195
 21
25.7418
 31
0.0
  0
LINE
  8
0
 62
     0
 10
88.0195
 20
25.7418
 30
0.0
 11
88.0195
 21
22.6412
 31
0.0
  0
LINE
  8
0
 62
     0
 10
88.0195
 20
22.6412
 30
0.0
 11
88.8199
 21
22.6412
 31
0.0
  0
LINE
  8
0
 62
     0
 10
88.8199
 20
22.6412
 30
0.0
 11
88.8199
 21
16.841
 31
0.0
  0
LINE
  8
0
 62
     0
 10
88.8199
 20
16.841
 30
0.0
 11
88.0195
 21
16.841
 31
0.0
  0
LINE
  8
0
 62
     0
 10
88.0195
 20
16.841
 30
0.0
 11
88.0195
 21
13.7418
 31
0.0
  0
LINE
  8
0
 62
     0
 10
88.0195
 20
13.7418
 30
0.0
 11
88.8199
 21
13.7418
 31
0.0
  0
LINE
  8
0
 62
     0
 10
88.8199
 20
13.7418
 30
0.0
 11
88.8199
 21
12.7413
 31
0.0
  0
LINE
  8
0
 62
     0
 10
88.8199
 20
12.7413
 30
0.0
 11
102.82
 21
12.7413
 31
0.0
  0
LINE
  8
0
 62
     0
 10
102.82
 20
12.7413
 30
0.0
 11
102.82
 21
13.7418
 31
0.0
  0
LINE
  8
0
 62
     0
 10
102.82
 20
13.7418
 30
0.0
 11
103.619
 21
13.7418
 31
0.0
  0
LINE
  8
0
 62
     0
 10
103.619
 20
13.7418
 30
0.0
 11
103.619
 21
16.841
 31
0.0
  0
LINE
  8
0
 62
     0
 10
103.619
 20
16.841
 30
0.0
 11
102.82
 21
16.841
 31
0.0
  0
LINE
  8
0
 62
     0
 10
102.82
 20
16.841
 30
0.0
 11
102.82
 21
22.6412
 31
0.0
  0
LINE
  8
0
 62
     0
 10
102.82
 20
22.6412
 30
0.0
 11
103.619
 21
22.6412
 31
0.0
  0
LINE
  8
0
 62
     0
 10
103.619
 20
22.6412
 30
0.0
 11
103.619
 21
25.7418
 31
0.0
  0
LINE
  8
0
 62
     0
 10
103.619
 20
25.7418
 30
0.0
 11
102.82
 21
25.7418
 31
0.0
  0
LINE
  8
0
 62
     0
 10
102.82
 20
25.7418
 30
0.0
 11
102.82
 21
26.7422
 31
0.0
  0
LINE
  8
0
 62
     0
 10
102.82
 20
26.7422
 30
0.0
 11
88.8199
 21
26.7422
 31
0.0
  0
LINE
  8
0
 62
     0
 10
12.6201
 20
45.7923
 30
0.0
 11
12.6201
 21
44.7918
 31
0.0
  0
LINE
  8
0
 62
     0
 10
12.6201
 20
44.7918
 30
0.0
 11
11.8181
 21
44.7918
 31
0.0
  0
LINE
  8
0
 62
     0
 10
11.8181
 20
44.7918
 30
0.0
 11
11.8181
 21
41.6913
 31
0.0
  0
LINE
  8
0
 62
     0
 10
11.8181
 20
41.6913
 30
0.0
 11
12.6201
 21
41.6913
 31
0.0
  0
LINE
  8
0
 62
     0
 10
12.6201
 20
41.6913
 30
0.0
 11
12.6201
 21
35.8909
 31
0.0
  0
LINE
  8
0
 62
     0
 10
12.6201
 20
35.8909
 30
0.0
 11
11.8181
 21
35.8909
 31
0.0
  0
LINE
  8
0
 62
     0
 10
11.8181
 20
35.8909
 30
0.0
 11
11.8181
 21
32.7918
 31
0.0
  0
LINE
  8
0
 62
     0
 10
11.8181
 20
32.7918
 30
0.0
 11
12.6201
 21
32.7918
 31
0.0
  0
LINE
  8
0
 62
     0
 10
12.6201
 20
32.7918
 30
0.0
 11
12.6201
 21
31.7913
 31
0.0
  0
LINE
  8
0
 62
     0
 10
12.6201
 20
31.7913
 30
0.0
 11
26.6196
 21
31.7913
 31
0.0
  0
LINE
  8
0
 62
     0
 10
26.6196
 20
31.7913
 30
0.0
 11
26.6196
 21
32.7918
 31
0.0
  0
LINE
  8
0
 62
     0
 10
26.6196
 20
32.7918
 30
0.0
 11
27.4175
 21
32.7918
 31
0.0
  0
LINE
  8
0
 62
     0
 10
27.4175
 20
32.7918
 30
0.0
 11
27.4175
 21
35.8909
 31
0.0
  0
LINE
  8
0
 62
     0
 10
27.4175
 20
35.8909
 30
0.0
 11
26.6196
 21
35.8909
 31
0.0
  0
LINE
  8
0
 62
     0
 10
26.6196
 20
35.8909
 30
0.0
 11
26.6196
 21
41.6913
 31
0.0
  0
LINE
  8
0
 62
     0
 10
26.6196
 20
41.6913
 30
0.0
 11
27.4175
 21
41.6913
 31
0.0
  0
LINE
  8
0
 62
     0
 10
27.4175
 20
41.6913
 30
0.0
 11
27.4175
 21
44.7918
 31
0.0
  0
LINE
  8
0
 62
     0
 10
27.4175
 20
44.7918
 30
0.0
 11
26.6196
 21
44.7918
 31
0.0
  0
LINE
  8
0
 62
     0
 10
26.6196
 20
44.7918
 30
0.0
 11
26.6196
 21
45.7923
 31
0.0
  0
LINE
  8
0
 62
     0
 10
26.6196
 20
45.7923
 30
0.0
 11
12.6201
 21
45.7923
 31
0.0
  0
LINE
  8
0
 62
     0
 10
31.6701
 20
45.7923
 30
0.0
 11
31.6701
 21
44.7918
 31
0.0
  0
LINE
  8
0
 62
     0
 10
31.6701
 20
44.7918
 30
0.0
 11
30.8694
 21
44.7918
 31
0.0
  0
LINE
  8
0
 62
     0
 10
30.8694
 20
44.7918
 30
0.0
 11
30.8694
 21
41.6913
 31
0.0
  0
LINE
  8
0
 62
     0
 10
30.8694
 20
41.6913
 30
0.0
 11
31.6701
 21
41.6913
 31
0.0
  0
LINE
  8
0
 62
     0
 10
31.6701
 20
41.6913
 30
0.0
 11
31.6701
 21
35.8909
 31
0.0
  0
LINE
  8
0
 62
     0
 10
31.6701
 20
35.8909
 30
0.0
 11
30.8694
 21
35.8909
 31
0.0
  0
LINE
  8
0
 62
     0
 10
30.8694
 20
35.8909
 30
0.0
 11
30.8694
 21
32.7918
 31
0.0
  0
LINE
  8
0
 62
     0
 10
30.8694
 20
32.7918
 30
0.0
 11
31.6701
 21
32.7918
 31
0.0
  0
LINE
  8
0
 62
     0
 10
31.6701
 20
32.7918
 30
0.0
 11
31.6701
 21
31.7913
 31
0.0
  0
LINE
  8
0
 62
     0
 10
31.6701
 20
31.7913
 30
0.0
 11
45.6696
 21
31.7913
 31
0.0
  0
LINE
  8
0
 62
     0
 10
45.6696
 20
31.7913
 30
0.0
 11
45.6696
 21
32.7918
 31
0.0
  0
LINE
  8
0
 62
     0
 10
45.6696
 20
32.7918
 30
0.0
 11
46.4689
 21
32.7918
 31
0.0
  0
LINE
  8
0
 62
     0
 10
46.4689
 20
32.7918
 30
0.0
 11
46.4689
 21
35.8909
 31
0.0
  0
LINE
  8
0
 62
     0
 10
46.4689
 20
35.8909
 30
0.0
 11
45.6696
 21
35.8909
 31
0.0
  0
LINE
  8
0
 62
     0
 10
45.6696
 20
35.8909
 30
0.0
 11
45.6696
 21
41.6913
 31
0.0
  0
LINE
  8
0
 62
     0
 10
45.6696
 20
41.6913
 30
0.0
 11
46.4689
 21
41.6913
 31
0.0
  0
LINE
  8
0
 62
     0
 10
46.4689
 20
41.6913
 30
0.0
 11
46.4689
 21
44.7918
 31
0.0
  0
LINE
  8
0
 62
     0
 10
46.4689
 20
44.7918
 30
0.0
 11
45.6696
 21
44.7918
 31
0.0
  0
LINE
  8
0
 62
     0
 10
45.6696
 20
44.7918
 30
0.0
 11
45.6696
 21
45.7923
 31
0.0
  0
LINE
  8
0
 62
     0
 10
45.6696
 20
45.7923
 30
0.0
 11
31.6701
 21
45.7923
 31
0.0
  0
LINE
  8
0
 62
     0
 10
50.7199
 20
45.7923
 30
0.0
 11
50.7199
 21
44.7918
 31
0.0
  0
LINE
  8
0
 62
     0
 10
50.7199
 20
44.7918
 30
0.0
 11
49.9195
 21
44.7918
 31
0.0
  0
LINE
  8
0
 62
     0
 10
49.9195
 20
44.7918
 30
0.0
 11
49.9195
 21
41.6913
 31
0.0
  0
LINE
  8
0
 62
     0
 10
49.9195
 20
41.6913
 30
0.0
 11
50.7199
 21
41.6913
 31
0.0
  0
LINE
  8
0
 62
     0
 10
50.7199
 20
41.6913
 30
0.0
 11
50.7199
 21
35.8909
 31
0.0
  0
LINE
  8
0
 62
     0
 10
50.7199
 20
35.8909
 30
0.0
 11
49.9195
 21
35.8909
 31
0.0
  0
LINE
  8
0
 62
     0
 10
49.9195
 20
35.8909
 30
0.0
 11
49.9195
 21
32.7918
 31
0.0
  0
LINE
  8
0
 62
     0
 10
49.9195
 20
32.7918
 30
0.0
 11
50.7199
 21
32.7918
 31
0.0
  0
LINE
  8
0
 62
     0
 10
50.7199
 20
32.7918
 30
0.0
 11
50.7199
 21
31.7913
 31
0.0
  0
LINE
  8
0
 62
     0
 10
50.7199
 20
31.7913
 30
0.0
 11
64.7196
 21
31.7913
 31
0.0
  0
LINE
  8
0
 62
     0
 10
64.7196
 20
31.7913
 30
0.0
 11
64.7196
 21
32.7918
 31
0.0
  0
LINE
  8
0
 62
     0
 10
64.7196
 20
32.7918
 30
0.0
 11
65.519
 21
32.7918
 31
0.0
  0
LINE
  8
0
 62
     0
 10
65.519
 20
32.7918
 30
0.0
 11
65.519
 21
35.8909
 31
0.0
  0
LINE
  8
0
 62
     0
 10
65.519
 20
35.8909
 30
0.0
 11
64.7196
 21
35.8909
 31
0.0
  0
LINE
  8
0
 62
     0
 10
64.7196
 20
35.8909
 30
0.0
 11
64.7196
 21
41.6913
 31
0.0
  0
LINE
  8
0
 62
     0
 10
64.7196
 20
41.6913
 30
0.0
 11
65.519
 21
41.6913
 31
0.0
  0
LINE
  8
0
 62
     0
 10
65.519
 20
41.6913
 30
0.0
 11
65.519
 21
44.7918
 31
0.0
  0
LINE
  8
0
 62
     0
 10
65.519
 20
44.7918
 30
0.0
 11
64.7196
 21
44.7918
 31
0.0
  0
LINE
  8
0
 62
     0
 10
64.7196
 20
44.7918
 30
0.0
 11
64.7196
 21
45.7923
 31
0.0
  0
LINE
  8
0
 62
     0
 10
64.7196
 20
45.7923
 30
0.0
 11
50.7199
 21
45.7923
 31
0.0
  0
LINE
  8
0
 62
     0
 10
69.7699
 20
45.7923
 30
0.0
 11
69.7699
 21
44.7918
 31
0.0
  0
LINE
  8
0
 62
     0
 10
69.7699
 20
44.7918
 30
0.0
 11
68.9695
 21
44.7918
 31
0.0
  0
LINE
  8
0
 62
     0
 10
68.9695
 20
44.7918
 30
0.0
 11
68.9695
 21
41.6913
 31
0.0
  0
LINE
  8
0
 62
     0
 10
68.9695
 20
41.6913
 30
0.0
 11
69.7699
 21
41.6913
 31
0.0
  0
LINE
  8
0
 62
     0
 10
69.7699
 20
41.6913
 30
0.0
 11
69.7699
 21
35.8909
 31
0.0
  0
LINE
  8
0
 62
     0
 10
69.7699
 20
35.8909
 30
0.0
 11
68.9695
 21
35.8909
 31
0.0
  0
LINE
  8
0
 62
     0
 10
68.9695
 20
35.8909
 30
0.0
 11
68.9695
 21
32.7918
 31
0.0
  0
LINE
  8
0
 62
     0
 10
68.9695
 20
32.7918
 30
0.0
 11
69.7699
 21
32.7918
 31
0.0
  0
LINE
  8
0
 62
     0
 10
69.7699
 20
32.7918
 30
0.0
 11
69.7699
 21
31.7913
 31
0.0
  0
LINE
  8
0
 62
     0
 10
69.7699
 20
31.7913
 30
0.0
 11
83.7696
 21
31.7913
 31
0.0
  0
LINE
  8
0
 62
     0
 10
83.7696
 20
31.7913
 30
0.0
 11
83.7696
 21
32.7918
 31
0.0
  0
LINE
  8
0
 62
     0
 10
83.7696
 20
32.7918
 30
0.0
 11
84.569
 21
32.7918
 31
0.0
  0
LINE
  8
0
 62
     0
 10
84.569
 20
32.7918
 30
0.0
 11
84.569
 21
35.8909
 31
0.0
  0
LINE
  8
0
 62
     0
 10
84.569
 20
35.8909
 30
0.0
 11
83.7696
 21
35.8909
 31
0.0
  0
LINE
  8
0
 62
     0
 10
83.7696
 20
35.8909
 30
0.0
 11
83.7696
 21
41.6913
 31
0.0
  0
LINE
  8
0
 62
     0
 10
83.7696
 20
41.6913
 30
0.0
 11
84.569
 21
41.6913
 31
0.0
  0
LINE
  8
0
 62
     0
 10
84.569
 20
41.6913
 30
0.0
 11
84.569
 21
44.7918
 31
0.0
  0
LINE
  8
0
 62
     0
 10
84.569
 20
44.7918
 30
0.0
 11
83.7696
 21
44.7918
 31
0.0
  0
LINE
  8
0
 62
     0
 10
83.7696
 20
44.7918
 30
0.0
 11
83.7696
 21
45.7923
 31
0.0
  0
LINE
  8
0
 62
     0
 10
83.7696
 20
45.7923
 30
0.0
 11
69.7699
 21
45.7923
 31
0.0
  0
LINE
  8
0
 62
     0
 10
88.8199
 20
45.7923
 30
0.0
 11
88.8199
 21
44.7918
 31
0.0
  0
LINE
  8
0
 62
     0
 10
88.8199
 20
44.7918
 30
0.0
 11
88.0195
 21
44.7918
 31
0.0
  0
LINE
  8
0
 62
     0
 10
88.0195
 20
44.7918
 30
0.0
 11
88.0195
 21
41.6913
 31
0.0
  0
LINE
  8
0
 62
     0
 10
88.0195
 20
41.6913
 30
0.0
 11
88.8199
 21
41.6913
 31
0.0
  0
LINE
  8
0
 62
     0
 10
88.8199
 20
41.6913
 30
0.0
 11
88.8199
 21
35.8909
 31
0.0
  0
LINE
  8
0
 62
     0
 10
88.8199
 20
35.8909
 30
0.0
 11
88.0195
 21
35.8909
 31
0.0
  0
LINE
  8
0
 62
     0
 10
88.0195
 20
35.8909
 30
0.0
 11
88.0195
 21
32.7918
 31
0.0
  0
LINE
  8
0
 62
     0
 10
88.0195
 20
32.7918
 30
0.0
 11
88.8199
 21
32.7918
 31
0.0
  0
LINE
  8
0
 62
     0
 10
88.8199
 20
32.7918
 30
0.0
 11
88.8199
 21
31.7913
 31
0.0
  0
LINE
  8
0
 62
     0
 10
88.8199
 20
31.7913
 30
0.0
 11
102.82
 21
31.7913
 31
0.0
  0
LINE
  8
0
 62
     0
 10
102.82
 20
31.7913
 30
0.0
 11
102.82
 21
32.7918
 31
0.0
  0
LINE
  8
0
 62
     0
 10
102.82
 20
32.7918
 30
0.0
 11
103.619
 21
32.7918
 31
0.0
  0
LINE
  8
0
 62
     0
 10
103.619
 20
32.7918
 30
0.0
 11
103.619
 21
35.8909
 31
0.0
  0
LINE
  8
0
 62
     0
 10
103.619
 20
35.8909
 30
0.0
 11
102.82
 21
35.8909
 31
0.0
  0
LINE
  8
0
 62
     0
 10
102.82
 20
35.8909
 30
0.0
 11
102.82
 21
41.6913
 31
0.0
  0
LINE
  8
0
 62
     0
 10
102.82
 20
41.6913
 30
0.0
 11
103.619
 21
41.6913
 31
0.0
  0
LINE
  8
0
 62
     0
 10
103.619
 20
41.6913
 30
0.0
 11
103.619
 21
44.7918
 31
0.0
  0
LINE
  8
0
 62
     0
 10
103.619
 20
44.7918
 30
0.0
 11
102.82
 21
44.7918
 31
0.0
  0
LINE
  8
0
 62
     0
 10
102.82
 20
44.7918
 30
0.0
 11
102.82
 21
45.7923
 31
0.0
  0
LINE
  8
0
 62
     0
 10
102.82
 20
45.7923
 30
0.0
 11
88.8199
 21
45.7923
 31
0.0
  0
LINE
  8
0
 62
     0
 10
12.6201
 20
64.8423
 30
0.0
 11
12.6201
 21
63.8418
 31
0.0
  0
LINE
  8
0
 62
     0
 10
12.6201
 20
63.8418
 30
0.0
 11
11.8181
 21
63.8418
 31
0.0
  0
LINE
  8
0
 62
     0
 10
11.8181
 20
63.8418
 30
0.0
 11
11.8181
 21
60.7413
 31
0.0
  0
LINE
  8
0
 62
     0
 10
11.8181
 20
60.7413
 30
0.0
 11
12.6201
 21
60.7413
 31
0.0
  0
LINE
  8
0
 62
     0
 10
12.6201
 20
60.7413
 30
0.0
 11
12.6201
 21
54.9409
 31
0.0
  0
LINE
  8
0
 62
     0
 10
12.6201
 20
54.9409
 30
0.0
 11
11.8181
 21
54.9409
 31
0.0
  0
LINE
  8
0
 62
     0
 10
11.8181
 20
54.9409
 30
0.0
 11
11.8181
 21
51.8418
 31
0.0
  0
LINE
  8
0
 62
     0
 10
11.8181
 20
51.8418
 30
0.0
 11
12.6201
 21
51.8418
 31
0.0
  0
LINE
  8
0
 62
     0
 10
12.6201
 20
51.8418
 30
0.0
 11
12.6201
 21
50.8413
 31
0.0
  0
LINE
  8
0
 62
     0
 10
12.6201
 20
50.8413
 30
0.0
 11
26.6196
 21
50.8413
 31
0.0
  0
LINE
  8
0
 62
     0
 10
26.6196
 20
50.8413
 30
0.0
 11
26.6196
 21
51.8418
 31
0.0
  0
LINE
  8
0
 62
     0
 10
26.6196
 20
51.8418
 30
0.0
 11
27.4175
 21
51.8418
 31
0.0
  0
LINE
  8
0
 62
     0
 10
27.4175
 20
51.8418
 30
0.0
 11
27.4175
 21
54.9409
 31
0.0
  0
LINE
  8
0
 62
     0
 10
27.4175
 20
54.9409
 30
0.0
 11
26.6196
 21
54.9409
 31
0.0
  0
LINE
  8
0
 62
     0
 10
26.6196
 20
54.9409
 30
0.0
 11
26.6196
 21
60.7413
 31
0.0
  0
LINE
  8
0
 62
     0
 10
26.6196
 20
60.7413
 30
0.0
 11
27.4175
 21
60.7413
 31
0.0
  0
LINE
  8
0
 62
     0
 10
27.4175
 20
60.7413
 30
0.0
 11
27.4175
 21
63.8418
 31
0.0
  0
LINE
  8
0
 62
     0
 10
27.4175
 20
63.8418
 30
0.0
 11
26.6196
 21
63.8418
 31
0.0
  0
LINE
  8
0
 62
     0
 10
26.6196
 20
63.8418
 30
0.0
 11
26.6196
 21
64.8423
 31
0.0
  0
LINE
  8
0
 62
     0
 10
26.6196
 20
64.8423
 30
0.0
 11
12.6201
 21
64.8423
 31
0.0
  0
LINE
  8
0
 62
     0
 10
31.6701
 20
64.8423
 30
0.0
 11
31.6701
 21
63.8418
 31
0.0
  0
LINE
  8
0
 62
     0
 10
31.6701
 20
63.8418
 30
0.0
 11
30.8694
 21
63.8418
 31
0.0
  0
LINE
  8
0
 62
     0
 10
30.8694
 20
63.8418
 30
0.0
 11
30.8694
 21
60.7413
 31
0.0
  0
LINE
  8
0
 62
     0
 10
30.8694
 20
60.7413
 30
0.0
 11
31.6701
 21
60.7413
 31
0.0
  0
LINE
  8
0
 62
     0
 10
31.6701
 20
60.7413
 30
0.0
 11
31.6701
 21
54.9409
 31
0.0
  0
LINE
  8
0
 62
     0
 10
31.6701
 20
54.9409
 30
0.0
 11
30.8694
 21
54.9409
 31
0.0
  0
LINE
  8
0
 62
     0
 10
30.8694
 20
54.9409
 30
0.0
 11
30.8694
 21
51.8418
 31
0.0
  0
LINE
  8
0
 62
     0
 10
30.8694
 20
51.8418
 30
0.0
 11
31.6701
 21
51.8418
 31
0.0
  0
LINE
  8
0
 62
     0
 10
31.6701
 20
51.8418
 30
0.0
 11
31.6701
 21
50.8413
 31
0.0
  0
LINE
  8
0
 62
     0
 10
31.6701
 20
50.8413
 30
0.0
 11
45.6696
 21
50.8413
 31
0.0
  0
LINE
  8
0
 62
     0
 10
45.6696
 20
50.8413
 30
0.0
 11
45.6696
 21
51.8418
 31
0.0
  0
LINE
  8
0
 62
     0
 10
45.6696
 20
51.8418
 30
0.0
 11
46.4689
 21
51.8418
 31
0.0
  0
LINE
  8
0
 62
     0
 10
46.4689
 20
51.8418
 30
0.0
 11
46.4689
 21
54.9409
 31
0.0
  0
LINE
  8
0
 62
     0
 10
46.4689
 20
54.9409
 30
0.0
 11
45.6696
 21
54.9409
 31
0.0
  0
LINE
  8
0
 62
     0
 10
45.6696
 20
54.9409
 30
0.0
 11
45.6696
 21
60.7413
 31
0.0
  0
LINE
  8
0
 62
     0
 10
45.6696
 20
60.7413
 30
0.0
 11
46.4689
 21
60.7413
 31
0.0
  0
LINE
  8
0
 62
     0
 10
46.4689
 20
60.7413
 30
0.0
 11
46.4689
 21
63.8418
 31
0.0
  0
LINE
  8
0
 62
     0
 10
46.4689
 20
63.8418
 30
0.0
 11
45.6696
 21
63.8418
 31
0.0
  0
LINE
  8
0
 62
     0
 10
45.6696
 20
63.8418
 30
0.0
 11
45.6696
 21
64.8423
 31
0.0
  0
LINE
  8
0
 62
     0
 10
45.6696
 20
64.8423
 30
0.0
 11
31.6701
 21
64.8423
 31
0.0
  0
LINE
  8
0
 62
     0
 10
50.7199
 20
64.8423
 30
0.0
 11
50.7199
 21
63.8418
 31
0.0
  0
LINE
  8
0
 62
     0
 10
50.7199
 20
63.8418
 30
0.0
 11
49.9195
 21
63.8418
 31
0.0
  0
LINE
  8
0
 62
     0
 10
49.9195
 20
63.8418
 30
0.0
 11
49.9195
 21
60.7413
 31
0.0
  0
LINE
  8
0
 62
     0
 10
49.9195
 20
60.7413
 30
0.0
 11
50.7199
 21
60.7413
 31
0.0
  0
LINE
  8
0
 62
     0
 10
50.7199
 20
60.7413
 30
0.0
 11
50.7199
 21
54.9409
 31
0.0
  0
LINE
  8
0
 62
     0
 10
50.7199
 20
54.9409
 30
0.0
 11
49.9195
 21
54.9409
 31
0.0
  0
LINE
  8
0
 62
     0
 10
49.9195
 20
54.9409
 30
0.0
 11
49.9195
 21
51.8418
 31
0.0
  0
LINE
  8
0
 62
     0
 10
49.9195
 20
51.8418
 30
0.0
 11
50.7199
 21
51.8418
 31
0.0
  0
LINE
  8
0
 62
     0
 10
50.7199
 20
51.8418
 30
0.0
 11
50.7199
 21
50.8413
 31
0.0
  0
LINE
  8
0
 62
     0
 10
50.7199
 20
50.8413
 30
0.0
 11
64.7196
 21
50.8413
 31
0.0
  0
LINE
  8
0
 62
     0
 10
64.7196
 20
50.8413
 30
0.0
 11
64.7196
 21
51.8418
 31
0.0
  0
LINE
  8
0
 62
     0
 10
64.7196
 20
51.8418
 30
0.0
 11
65.519
 21
51.8418
 31
0.0
  0
LINE
  8
0
 62
     0
 10
65.519
 20
51.8418
 30
0.0
 11
65.519
 21
54.9409
 31
0.0
  0
LINE
  8
0
 62
     0
 10
65.519
 20
54.9409
 30
0.0
 11
64.7196
 21
54.9409
 31
0.0
  0
LINE
  8
0
 62
     0
 10
64.7196
 20
54.9409
 30
0.0
 11
64.7196
 21
60.7413
 31
0.0
  0
LINE
  8
0
 62
     0
 10
64.7196
 20
60.7413
 30
0.0
 11
65.519
 21
60.7413
 31
0.0
  0
LINE
  8
0
 62
     0
 10
65.519
 20
60.7413
 30
0.0
 11
65.519
 21
63.8418
 31
0.0
  0
LINE
  8
0
 62
     0
 10
65.519
 20
63.8418
 30
0.0
 11
64.7196
 21
63.8418
 31
0.0
  0
LINE
  8
0
 62
     0
 10
64.7196
 20
63.8418
 30
0.0
 11
64.7196
 21
64.8423
 31
0.0
  0
LINE
  8
0
 62
     0
 10
64.7196
 20
64.8423
 30
0.0
 11
50.7199
 21
64.8423
 31
0.0
  0
LINE
  8
0
 62
     0
 10
69.7699
 20
64.8423
 30
0.0
 11
69.7699
 21
63.8418
 31
0.0
  0
LINE
  8
0
 62
     0
 10
69.7699
 20
63.8418
 30
0.0
 11
68.9695
 21
63.8418
 31
0.0
  0
LINE
  8
0
 62
     0
 10
68.9695
 20
63.8418
 30
0.0
 11
68.9695
 21
60.7413
 31
0.0
  0
LINE
  8
0
 62
     0
 10
68.9695
 20
60.7413
 30
0.0
 11
69.7699
 21
60.7413
 31
0.0
  0
LINE
  8
0
 62
     0
 10
69.7699
 20
60.7413
 30
0.0
 11
69.7699
 21
54.9409
 31
0.0
  0
LINE
  8
0
 62
     0
 10
69.7699
 20
54.9409
 30
0.0
 11
68.9695
 21
54.9409
 31
0.0
  0
LINE
  8
0
 62
     0
 10
68.9695
 20
54.9409
 30
0.0
 11
68.9695
 21
51.8418
 31
0.0
  0
LINE
  8
0
 62
     0
 10
68.9695
 20
51.8418
 30
0.0
 11
69.7699
 21
51.8418
 31
0.0
  0
LINE
  8
0
 62
     0
 10
69.7699
 20
51.8418
 30
0.0
 11
69.7699
 21
50.8413
 31
0.0
  0
LINE
  8
0
 62
     0
 10
69.7699
 20
50.8413
 30
0.0
 11
83.7696
 21
50.8413
 31
0.0
  0
LINE
  8
0
 62
     0
 10
83.7696
 20
50.8413
 30
0.0
 11
83.7696
 21
51.8418
 31
0.0
  0
LINE
  8
0
 62
     0
 10
83.7696
 20
51.8418
 30
0.0
 11
84.569
 21
51.8418
 31
0.0
  0
LINE
  8
0
 62
     0
 10
84.569
 20
51.8418
 30
0.0
 11
84.569
 21
54.9409
 31
0.0
  0
LINE
  8
0
 62
     0
 10
84.569
 20
54.9409
 30
0.0
 11
83.7696
 21
54.9409
 31
0.0
  0
LINE
  8
0
 62
     0
 10
83.7696
 20
54.9409
 30
0.0
 11
83.7696
 21
60.7413
 31
0.0
  0
LINE
  8
0
 62
     0
 10
83.7696
 20
60.7413
 30
0.0
 11
84.569
 21
60.7413
 31
0.0
  0
LINE
  8
0
 62
     0
 10
84.569
 20
60.7413
 30
0.0
 11
84.569
 21
63.8418
 31
0.0
  0
LINE
  8
0
 62
     0
 10
84.569
 20
63.8418
 30
0.0
 11
83.7696
 21
63.8418
 31
0.0
  0
LINE
  8
0
 62
     0
 10
83.7696
 20
63.8418
 30
0.0
 11
83.7696
 21
64.8423
 31
0.0
  0
LINE
  8
0
 62
     0
 10
83.7696
 20
64.8423
 30
0.0
 11
69.7699
 21
64.8423
 31
0.0
  0
LINE
  8
0
 62
     0
 10
88.8199
 20
64.8423
 30
0.0
 11
88.8199
 21
63.8418
 31
0.0
  0
LINE
  8
0
 62
     0
 10
88.8199
 20
63.8418
 30
0.0
 11
88.0195
 21
63.8418
 31
0.0
  0
LINE
  8
0
 62
     0
 10
88.0195
 20
63.8418
 30
0.0
 11
88.0195
 21
60.7413
 31
0.0
  0
LINE
  8
0
 62
     0
 10
88.0195
 20
60.7413
 30
0.0
 11
88.8199
 21
60.7413
 31
0.0
  0
LINE
  8
0
 62
     0
 10
88.8199
 20
60.7413
 30
0.0
 11
88.8199
 21
54.9409
 31
0.0
  0
LINE
  8
0
 62
     0
 10
88.8199
 20
54.9409
 30
0.0
 11
88.0195
 21
54.9409
 31
0.0
  0
LINE
  8
0
 62
     0
 10
88.0195
 20
54.9409
 30
0.0
 11
88.0195
 21
51.8418
 31
0.0
  0
LINE
  8
0
 62
     0
 10
88.0195
 20
51.8418
 30
0.0
 11
88.8199
 21
51.8418
 31
0.0
  0
LINE
  8
0
 62
     0
 10
88.8199
 20
51.8418
 30
0.0
 11
88.8199
 21
50.8413
 31
0.0
  0
LINE
  8
0
 62
     0
 10
88.8199
 20
50.8413
 30
0.0
 11
102.82
 21
50.8413
 31
0.0
  0
LINE
  8
0
 62
     0
 10
102.82
 20
50.8413
 30
0.0
 11
102.82
 21
51.8418
 31
0.0
  0
LINE
  8
0
 62
     0
 10
102.82
 20
51.8418
 30
0.0
 11
103.619
 21
51.8418
 31
0.0
  0
LINE
  8
0
 62
     0
 10
103.619
 20
51.8418
 30
0.0
 11
103.619
 21
54.9409
 31
0.0
  0
LINE
  8
0
 62
     0
 10
103.619
 20
54.9409
 30
0.0
 11
102.82
 21
54.9409
 31
0.0
  0
LINE
  8
0
 62
     0
 10
102.82
 20
54.9409
 30
0.0
 11
102.82
 21
60.7413
 31
0.0
  0
LINE
  8
0
 62
     0
 10
102.82
 20
60.7413
 30
0.0
 11
103.619
 21
60.7413
 31
0.0
  0
LINE
  8
0
 62
     0
 10
103.619
 20
60.7413
 30
0.0
 11
103.619
 21
63.8418
 31
0.0
  0
LINE
  8
0
 62
     0
 10
103.619
 20
63.8418
 30
0.0
 11
102.82
 21
63.8418
 31
0.0
  0
LINE
  8
0
 62
     0
 10
102.82
 20
63.8418
 30
0.0
 11
102.82
 21
64.8423
 31
0.0
  0
LINE
  8
0
 62
     0
 10
102.82
 20
64.8423
 30
0.0
 11
88.8199
 21
64.8423
 31
0.0
  0
LINE
  8
0
 62
     0
 10
12.6201
 20
83.8923
 30
0.0
 11
12.6201
 21
82.8918
 31
0.0
  0
LINE
  8
0
 62
     0
 10
12.6201
 20
82.8918
 30
0.0
 11
11.8181
 21
82.8918
 31
0.0
  0
LINE
  8
0
 62
     0
 10
11.8181
 20
82.8918
 30
0.0
 11
11.8181
 21
79.7913
 31
0.0
  0
LINE
  8
0
 62
     0
 10
11.8181
 20
79.7913
 30
0.0
 11
12.6201
 21
79.7913
 31
0.0
  0
LINE
  8
0
 62
     0
 10
12.6201
 20
79.7913
 30
0.0
 11
12.6201
 21
73.9909
 31
0.0
  0
LINE
  8
0
 62
     0
 10
12.6201
 20
73.9909
 30
0.0
 11
11.8181
 21
73.9909
 31
0.0
  0
LINE
  8
0
 62
     0
 10
11.8181
 20
73.9909
 30
0.0
 11
11.8181
 21
70.8918
 31
0.0
  0
LINE
  8
0
 62
     0
 10
11.8181
 20
70.8918
 30
0.0
 11
12.6201
 21
70.8918
 31
0.0
  0
LINE
  8
0
 62
     0
 10
12.6201
 20
70.8918
 30
0.0
 11
12.6201
 21
69.8913
 31
0.0
  0
LINE
  8
0
 62
     0
 10
12.6201
 20
69.8913
 30
0.0
 11
26.6196
 21
69.8913
 31
0.0
  0
LINE
  8
0
 62
     0
 10
26.6196
 20
69.8913
 30
0.0
 11
26.6196
 21
70.8918
 31
0.0
  0
LINE
  8
0
 62
     0
 10
26.6196
 20
70.8918
 30
0.0
 11
27.4175
 21
70.8918
 31
0.0
  0
LINE
  8
0
 62
     0
 10
27.4175
 20
70.8918
 30
0.0
 11
27.4175
 21
73.9909
 31
0.0
  0
LINE
  8
0
 62
     0
 10
27.4175
 20
73.9909
 30
0.0
 11
26.6196
 21
73.9909
 31
0.0
  0
LINE
  8
0
 62
     0
 10
26.6196
 20
73.9909
 30
0.0
 11
26.6196
 21
79.7913
 31
0.0
  0
LINE
  8
0
 62
     0
 10
26.6196
 20
79.7913
 30
0.0
 11
27.4175
 21
79.7913
 31
0.0
  0
LINE
  8
0
 62
     0
 10
27.4175
 20
79.7913
 30
0.0
 11
27.4175
 21
82.8918
 31
0.0
  0
LINE
  8
0
 62
     0
 10
27.4175
 20
82.8918
 30
0.0
 11
26.6196
 21
82.8918
 31
0.0
  0
LINE
  8
0
 62
     0
 10
26.6196
 20
82.8918
 30
0.0
 11
26.6196
 21
83.8923
 31
0.0
  0
LINE
  8
0
 62
     0
 10
26.6196
 20
83.8923
 30
0.0
 11
12.6201
 21
83.8923
 31
0.0
  0
LINE
  8
0
 62
     0
 10
31.6701
 20
83.8923
 30
0.0
 11
31.6701
 21
82.8918
 31
0.0
  0
LINE
  8
0
 62
     0
 10
31.6701
 20
82.8918
 30
0.0
 11
30.8694
 21
82.8918
 31
0.0
  0
LINE
  8
0
 62
     0
 10
30.8694
 20
82.8918
 30
0.0
 11
30.8694
 21
79.7913
 31
0.0
  0
LINE
  8
0
 62
     0
 10
30.8694
 20
79.7913
 30
0.0
 11
31.6701
 21
79.7913
 31
0.0
  0
LINE
  8
0
 62
     0
 10
31.6701
 20
79.7913
 30
0.0
 11
31.6701
 21
73.9909
 31
0.0
  0
LINE
  8
0
 62
     0
 10
31.6701
 20
73.9909
 30
0.0
 11
30.8694
 21
73.9909
 31
0.0
  0
LINE
  8
0
 62
     0
 10
30.8694
 20
73.9909
 30
0.0
 11
30.8694
 21
70.8918
 31
0.0
  0
LINE
  8
0
 62
     0
 10
30.8694
 20
70.8918
 30
0.0
 11
31.6701
 21
70.8918
 31
0.0
  0
LINE
  8
0
 62
     0
 10
31.6701
 20
70.8918
 30
0.0
 11
31.6701
 21
69.8913
 31
0.0
  0
LINE
  8
0
 62
     0
 10
31.6701
 20
69.8913
 30
0.0
 11
45.6696
 21
69.8913
 31
0.0
  0
LINE
  8
0
 62
     0
 10
45.6696
 20
69.8913
 30
0.0
 11
45.6696
 21
70.8918
 31
0.0
  0
LINE
  8
0
 62
     0
 10
45.6696
 20
70.8918
 30
0.0
 11
46.4689
 21
70.8918
 31
0.0
  0
LINE
  8
0
 62
     0
 10
46.4689
 20
70.8918
 30
0.0
 11
46.4689
 21
73.9909
 31
0.0
  0
LINE
  8
0
 62
     0
 10
46.4689
 20
73.9909
 30
0.0
 11
45.6696
 21
73.9909
 31
0.0
  0
LINE
  8
0
 62
     0
 10
45.6696
 20
73.9909
 30
0.0
 11
45.6696
 21
79.7913
 31
0.0
  0
LINE
  8
0
 62
     0
 10
45.6696
 20
79.7913
 30
0.0
 11
46.4689
 21
79.7913
 31
0.0
  0
LINE
  8
0
 62
     0
 10
46.4689
 20
79.7913
 30
0.0
 11
46.4689
 21
82.8918
 31
0.0
  0
LINE
  8
0
 62
     0
 10
46.4689
 20
82.8918
 30
0.0
 11
45.6696
 21
82.8918
 31
0.0
  0
LINE
  8
0
 62
     0
 10
45.6696
 20
82.8918
 30
0.0
 11
45.6696
 21
83.8923
 31
0.0
  0
LINE
  8
0
 62
     0
 10
45.6696
 20
83.8923
 30
0.0
 11
31.6701
 21
83.8923
 31
0.0
  0
LINE
  8
0
 62
     0
 10
50.7199
 20
83.8923
 30
0.0
 11
50.7199
 21
82.8918
 31
0.0
  0
LINE
  8
0
 62
     0
 10
50.7199
 20
82.8918
 30
0.0
 11
49.9195
 21
82.8918
 31
0.0
  0
LINE
  8
0
 62
     0
 10
49.9195
 20
82.8918
 30
0.0
 11
49.9195
 21
79.7913
 31
0.0
  0
LINE
  8
0
 62
     0
 10
49.9195
 20
79.7913
 30
0.0
 11
50.7199
 21
79.7913
 31
0.0
  0
LINE
  8
0
 62
     0
 10
50.7199
 20
79.7913
 30
0.0
 11
50.7199
 21
73.9909
 31
0.0
  0
LINE
  8
0
 62
     0
 10
50.7199
 20
73.9909
 30
0.0
 11
49.9195
 21
73.9909
 31
0.0
  0
LINE
  8
0
 62
     0
 10
49.9195
 20
73.9909
 30
0.0
 11
49.9195
 21
70.8918
 31
0.0
  0
LINE
  8
0
 62
     0
 10
49.9195
 20
70.8918
 30
0.0
 11
50.7199
 21
70.8918
 31
0.0
  0
LINE
  8
0
 62
     0
 10
50.7199
 20
70.8918
 30
0.0
 11
50.7199
 21
69.8913
 31
0.0
  0
LINE
  8
0
 62
     0
 10
50.7199
 20
69.8913
 30
0.0
 11
64.7196
 21
69.8913
 31
0.0
  0
LINE
  8
0
 62
     0
 10
64.7196
 20
69.8913
 30
0.0
 11
64.7196
 21
70.8918
 31
0.0
  0
LINE
  8
0
 62
     0
 10
64.7196
 20
70.8918
 30
0.0
 11
65.519
 21
70.8918
 31
0.0
  0
LINE
  8
0
 62
     0
 10
65.519
 20
70.8918
 30
0.0
 11
65.519
 21
73.9909
 31
0.0
  0
LINE
  8
0
 62
     0
 10
65.519
 20
73.9909
 30
0.0
 11
64.7196
 21
73.9909
 31
0.0
  0
LINE
  8
0
 62
     0
 10
64.7196
 20
73.9909
 30
0.0
 11
64.7196
 21
79.7913
 31
0.0
  0
LINE
  8
0
 62
     0
 10
64.7196
 20
79.7913
 30
0.0
 11
65.519
 21
79.7913
 31
0.0
  0
LINE
  8
0
 62
     0
 10
65.519
 20
79.7913
 30
0.0
 11
65.519
 21
82.8918
 31
0.0
  0
LINE
  8
0
 62
     0
 10
65.519
 20
82.8918
 30
0.0
 11
64.7196
 21
82.8918
 31
0.0
  0
LINE
  8
0
 62
     0
 10
64.7196
 20
82.8918
 30
0.0
 11
64.7196
 21
83.8923
 31
0.0
  0
LINE
  8
0
 62
     0
 10
64.7196
 20
83.8923
 30
0.0
 11
50.7199
 21
83.8923
 31
0.0
  0
LINE
  8
0
 62
     0
 10
69.7699
 20
83.8923
 30
0.0
 11
69.7699
 21
82.8918
 31
0.0
  0
LINE
  8
0
 62
     0
 10
69.7699
 20
82.8918
 30
0.0
 11
68.9695
 21
82.8918
 31
0.0
  0
LINE
  8
0
 62
     0
 10
68.9695
 20
82.8918
 30
0.0
 11
68.9695
 21
79.7913
 31
0.0
  0
LINE
  8
0
 62
     0
 10
68.9695
 20
79.7913
 30
0.0
 11
69.7699
 21
79.7913
 31
0.0
  0
LINE
  8
0
 62
     0
 10
69.7699
 20
79.7913
 30
0.0
 11
69.7699
 21
73.9909
 31
0.0
  0
LINE
  8
0
 62
     0
 10
69.7699
 20
73.9909
 30
0.0
 11
68.9695
 21
73.9909
 31
0.0
  0
LINE
  8
0
 62
     0
 10
68.9695
 20
73.9909
 30
0.0
 11
68.9695
 21
70.8918
 31
0.0
  0
LINE
  8
0
 62
     0
 10
68.9695
 20
70.8918
 30
0.0
 11
69.7699
 21
70.8918
 31
0.0
  0
LINE
  8
0
 62
     0
 10
69.7699
 20
70.8918
 30
0.0
 11
69.7699
 21
69.8913
 31
0.0
  0
LINE
  8
0
 62
     0
 10
69.7699
 20
69.8913
 30
0.0
 11
83.7696
 21
69.8913
 31
0.0
  0
LINE
  8
0
 62
     0
 10
83.7696
 20
69.8913
 30
0.0
 11
83.7696
 21
70.8918
 31
0.0
  0
LINE
  8
0
 62
     0
 10
83.7696
 20
70.8918
 30
0.0
 11
84.569
 21
70.8918
 31
0.0
  0
LINE
  8
0
 62
     0
 10
84.569
 20
70.8918
 30
0.0
 11
84.569
 21
73.9909
 31
0.0
  0
LINE
  8
0
 62
     0
 10
84.569
 20
73.9909
 30
0.0
 11
83.7696
 21
73.9909
 31
0.0
  0
LINE
  8
0
 62
     0
 10
83.7696
 20
73.9909
 30
0.0
 11
83.7696
 21
79.7913
 31
0.0
  0
LINE
  8
0
 62
     0
 10
83.7696
 20
79.7913
 30
0.0
 11
84.569
 21
79.7913
 31
0.0
  0
LINE
  8
0
 62
     0
 10
84.569
 20
79.7913
 30
0.0
 11
84.569
 21
82.8918
 31
0.0
  0
LINE
  8
0
 62
     0
 10
84.569
 20
82.8918
 30
0.0
 11
83.7696
 21
82.8918
 31
0.0
  0
LINE
  8
0
 62
     0
 10
83.7696
 20
82.8918
 30
0.0
 11
83.7696
 21
83.8923
 31
0.0
  0
LINE
  8
0
 62
     0
 10
83.7696
 20
83.8923
 30
0.0
 11
69.7699
 21
83.8923
 31
0.0
  0
LINE
  8
0
 62
     0
 10
88.8199
 20
83.8923
 30
0.0
 11
88.8199
 21
82.8918
 31
0.0
  0
LINE
  8
0
 62
     0
 10
88.8199
 20
82.8918
 30
0.0
 11
88.0195
 21
82.8918
 31
0.0
  0
LINE
  8
0
 62
     0
 10
88.0195
 20
82.8918
 30
0.0
 11
88.0195
 21
79.7913
 31
0.0
  0
LINE
  8
0
 62
     0
 10
88.0195
 20
79.7913
 30
0.0
 11
88.8199
 21
79.7913
 31
0.0
  0
LINE
  8
0
 62
     0
 10
88.8199
 20
79.7913
 30
0.0
 11
88.8199
 21
73.9909
 31
0.0
  0
LINE
  8
0
 62
     0
 10
88.8199
 20
73.9909
 30
0.0
 11
88.0195
 21
73.9909
 31
0.0
  0
LINE
  8
0
 62
     0
 10
88.0195
 20
73.9909
 30
0.0
 11
88.0195
 21
70.8918
 31
0.0
  0
LINE
  8
0
 62
     0
 10
88.0195
 20
70.8918
 30
0.0
 11
88.8199
 21
70.8918
 31
0.0
  0
LINE
  8
0
 62
     0
 10
88.8199
 20
70.8918
 30
0.0
 11
88.8199
 21
69.8913
 31
0.0
  0
LINE
  8
0
 62
     0
 10
88.8199
 20
69.8913
 30
0.0
 11
102.82
 21
69.8913
 31
0.0
  0
LINE
  8
0
 62
     0
 10
102.82
 20
69.8913
 30
0.0
 11
102.82
 21
70.8918
 31
0.0
  0
LINE
  8
0
 62
     0
 10
102.82
 20
70.8918
 30
0.0
 11
103.619
 21
70.8918
 31
0.0
  0
LINE
  8
0
 62
     0
 10
103.619
 20
70.8918
 30
0.0
 11
103.619
 21
73.9909
 31
0.0
  0
LINE
  8
0
 62
     0
 10
103.619
 20
73.9909
 30
0.0
 11
102.82
 21
73.9909
 31
0.0
  0
LINE
  8
0
 62
     0
 10
102.82
 20
73.9909
 30
0.0
 11
102.82
 21
79.7913
 31
0.0
  0
LINE
  8
0
 62
     0
 10
102.82
 20
79.7913
 30
0.0
 11
103.619
 21
79.7913
 31
0.0
  0
LINE
  8
0
 62
     0
 10
103.619
 20
79.7913
 30
0.0
 11
103.619
 21
82.8918
 31
0.0
  0
LINE
  8
0
 62
     0
 10
103.619
 20
82.8918
 30
0.0
 11
102.82
 21
82.8918
 31
0.0
  0
LINE
  8
0
 62
     0
 10
102.82
 20
82.8918
 30
0.0
 11
102.82
 21
83.8923
 31
0.0
  0
LINE
  8
0
 62
     0
 10
102.82
 20
83.8923
 30
0.0
 11
88.8199
 21
83.8923
 31
0.0
  0
ENDSEC
  0
EOF
